<svg width="3731" height="764" viewBox="0 0 3731 764" fill="none" xmlns="http://www.w3.org/2000/svg">
<path d="M21.8002 4.7997C28.8402 4.7997 34.1842 7.7437 37.8322 13.6317C41.5442 19.4557 43.4002 27.8717 43.4002 38.8797C43.4002 49.9517 41.5442 58.4317 37.8322 64.3197C34.1842 70.1437 28.8402 73.0557 21.8002 73.0557C14.7602 73.0557 9.3842 70.1437 5.67219 64.3197C2.0242 58.4317 0.200195 49.9517 0.200195 38.8797C0.200195 27.8717 2.0242 19.4557 5.67219 13.6317C9.3842 7.7437 14.7602 4.7997 21.8002 4.7997ZM21.8002 11.3277C13.0322 11.3277 8.6482 20.5117 8.6482 38.8797C8.6482 57.3117 13.0322 66.5277 21.8002 66.5277C30.5682 66.5277 34.9522 57.3117 34.9522 38.8797C34.9522 20.5117 30.5682 11.3277 21.8002 11.3277ZM21.8002 32.6397C23.5922 32.6397 25.0962 33.2477 26.3122 34.4637C27.5282 35.6797 28.1362 37.1517 28.1362 38.8797C28.1362 40.6717 27.5282 42.1757 26.3122 43.3917C25.0962 44.6077 23.5922 45.2157 21.8002 45.2157C20.0082 45.2157 18.5042 44.6077 17.2882 43.3917C16.1362 42.1757 15.5602 40.6717 15.5602 38.8797C15.5602 37.1517 16.1362 35.6797 17.2882 34.4637C18.5042 33.2477 20.0082 32.6397 21.8002 32.6397Z" fill="white"/>
<path d="M79.3627 4.7997C86.4027 4.7997 91.7467 7.7437 95.3947 13.6317C99.1067 19.4557 100.963 27.8717 100.963 38.8797C100.963 49.9517 99.1067 58.4317 95.3947 64.3197C91.7467 70.1437 86.4027 73.0557 79.3627 73.0557C72.3227 73.0557 66.9467 70.1437 63.2347 64.3197C59.5867 58.4317 57.7627 49.9517 57.7627 38.8797C57.7627 27.8717 59.5867 19.4557 63.2347 13.6317C66.9467 7.7437 72.3227 4.7997 79.3627 4.7997ZM79.3627 11.3277C70.5947 11.3277 66.2107 20.5117 66.2107 38.8797C66.2107 57.3117 70.5947 66.5277 79.3627 66.5277C88.1307 66.5277 92.5147 57.3117 92.5147 38.8797C92.5147 20.5117 88.1307 11.3277 79.3627 11.3277ZM79.3627 32.6397C81.1547 32.6397 82.6587 33.2477 83.8747 34.4637C85.0907 35.6797 85.6987 37.1517 85.6987 38.8797C85.6987 40.6717 85.0907 42.1757 83.8747 43.3917C82.6587 44.6077 81.1547 45.2157 79.3627 45.2157C77.5707 45.2157 76.0667 44.6077 74.8507 43.3917C73.6987 42.1757 73.1227 40.6717 73.1227 38.8797C73.1227 37.1517 73.6987 35.6797 74.8507 34.4637C76.0667 33.2477 77.5707 32.6397 79.3627 32.6397Z" fill="white"/>
<path d="M157.757 65.4717V71.9997H119.645V65.4717H135.869V14.6877L120.797 23.8077L117.245 18.1437L136.925 5.8557H144.029V65.4717H157.757Z" fill="white"/>
<path d="M194.488 4.7997C201.528 4.7997 206.872 7.7437 210.52 13.6317C214.232 19.4557 216.088 27.8717 216.088 38.8797C216.088 49.9517 214.232 58.4317 210.52 64.3197C206.872 70.1437 201.528 73.0557 194.488 73.0557C187.448 73.0557 182.072 70.1437 178.36 64.3197C174.712 58.4317 172.888 49.9517 172.888 38.8797C172.888 27.8717 174.712 19.4557 178.36 13.6317C182.072 7.7437 187.448 4.7997 194.488 4.7997ZM194.488 11.3277C185.72 11.3277 181.336 20.5117 181.336 38.8797C181.336 57.3117 185.72 66.5277 194.488 66.5277C203.256 66.5277 207.64 57.3117 207.64 38.8797C207.64 20.5117 203.256 11.3277 194.488 11.3277ZM194.488 32.6397C196.28 32.6397 197.784 33.2477 199 34.4637C200.216 35.6797 200.824 37.1517 200.824 38.8797C200.824 40.6717 200.216 42.1757 199 43.3917C197.784 44.6077 196.28 45.2157 194.488 45.2157C192.696 45.2157 191.192 44.6077 189.976 43.3917C188.824 42.1757 188.248 40.6717 188.248 38.8797C188.248 37.1517 188.824 35.6797 189.976 34.4637C191.192 33.2477 192.696 32.6397 194.488 32.6397Z" fill="white"/>
<path d="M252.05 4.7997C259.09 4.7997 264.434 7.7437 268.082 13.6317C271.794 19.4557 273.65 27.8717 273.65 38.8797C273.65 49.9517 271.794 58.4317 268.082 64.3197C264.434 70.1437 259.09 73.0557 252.05 73.0557C245.01 73.0557 239.634 70.1437 235.922 64.3197C232.274 58.4317 230.45 49.9517 230.45 38.8797C230.45 27.8717 232.274 19.4557 235.922 13.6317C239.634 7.7437 245.01 4.7997 252.05 4.7997ZM252.05 11.3277C243.282 11.3277 238.898 20.5117 238.898 38.8797C238.898 57.3117 243.282 66.5277 252.05 66.5277C260.818 66.5277 265.202 57.3117 265.202 38.8797C265.202 20.5117 260.818 11.3277 252.05 11.3277ZM252.05 32.6397C253.842 32.6397 255.346 33.2477 256.562 34.4637C257.778 35.6797 258.386 37.1517 258.386 38.8797C258.386 40.6717 257.778 42.1757 256.562 43.3917C255.346 44.6077 253.842 45.2157 252.05 45.2157C250.258 45.2157 248.754 44.6077 247.538 43.3917C246.386 42.1757 245.81 40.6717 245.81 38.8797C245.81 37.1517 246.386 35.6797 247.538 34.4637C248.754 33.2477 250.258 32.6397 252.05 32.6397Z" fill="white"/>
<path d="M330.445 65.4717V71.9997H292.333V65.4717H308.557V14.6877L293.485 23.8077L289.933 18.1437L309.613 5.8557H316.717V65.4717H330.445Z" fill="white"/>
<path d="M367.175 4.7997C374.215 4.7997 379.559 7.7437 383.207 13.6317C386.919 19.4557 388.775 27.8717 388.775 38.8797C388.775 49.9517 386.919 58.4317 383.207 64.3197C379.559 70.1437 374.215 73.0557 367.175 73.0557C360.135 73.0557 354.759 70.1437 351.047 64.3197C347.399 58.4317 345.575 49.9517 345.575 38.8797C345.575 27.8717 347.399 19.4557 351.047 13.6317C354.759 7.7437 360.135 4.7997 367.175 4.7997ZM367.175 11.3277C358.407 11.3277 354.023 20.5117 354.023 38.8797C354.023 57.3117 358.407 66.5277 367.175 66.5277C375.943 66.5277 380.327 57.3117 380.327 38.8797C380.327 20.5117 375.943 11.3277 367.175 11.3277ZM367.175 32.6397C368.967 32.6397 370.471 33.2477 371.687 34.4637C372.903 35.6797 373.511 37.1517 373.511 38.8797C373.511 40.6717 372.903 42.1757 371.687 43.3917C370.471 44.6077 368.967 45.2157 367.175 45.2157C365.383 45.2157 363.879 44.6077 362.663 43.3917C361.511 42.1757 360.935 40.6717 360.935 38.8797C360.935 37.1517 361.511 35.6797 362.663 34.4637C363.879 33.2477 365.383 32.6397 367.175 32.6397Z" fill="white"/>
<path d="M424.738 4.7997C431.778 4.7997 437.122 7.7437 440.77 13.6317C444.482 19.4557 446.338 27.8717 446.338 38.8797C446.338 49.9517 444.482 58.4317 440.77 64.3197C437.122 70.1437 431.778 73.0557 424.738 73.0557C417.698 73.0557 412.322 70.1437 408.61 64.3197C404.962 58.4317 403.138 49.9517 403.138 38.8797C403.138 27.8717 404.962 19.4557 408.61 13.6317C412.322 7.7437 417.698 4.7997 424.738 4.7997ZM424.738 11.3277C415.97 11.3277 411.586 20.5117 411.586 38.8797C411.586 57.3117 415.97 66.5277 424.738 66.5277C433.506 66.5277 437.89 57.3117 437.89 38.8797C437.89 20.5117 433.506 11.3277 424.738 11.3277ZM424.738 32.6397C426.53 32.6397 428.034 33.2477 429.25 34.4637C430.466 35.6797 431.074 37.1517 431.074 38.8797C431.074 40.6717 430.466 42.1757 429.25 43.3917C428.034 44.6077 426.53 45.2157 424.738 45.2157C422.946 45.2157 421.442 44.6077 420.226 43.3917C419.074 42.1757 418.498 40.6717 418.498 38.8797C418.498 37.1517 419.074 35.6797 420.226 34.4637C421.442 33.2477 422.946 32.6397 424.738 32.6397Z" fill="white"/>
<path d="M482.3 4.7997C489.34 4.7997 494.684 7.7437 498.332 13.6317C502.044 19.4557 503.9 27.8717 503.9 38.8797C503.9 49.9517 502.044 58.4317 498.332 64.3197C494.684 70.1437 489.34 73.0557 482.3 73.0557C475.26 73.0557 469.884 70.1437 466.172 64.3197C462.524 58.4317 460.7 49.9517 460.7 38.8797C460.7 27.8717 462.524 19.4557 466.172 13.6317C469.884 7.7437 475.26 4.7997 482.3 4.7997ZM482.3 11.3277C473.532 11.3277 469.148 20.5117 469.148 38.8797C469.148 57.3117 473.532 66.5277 482.3 66.5277C491.068 66.5277 495.452 57.3117 495.452 38.8797C495.452 20.5117 491.068 11.3277 482.3 11.3277ZM482.3 32.6397C484.092 32.6397 485.596 33.2477 486.812 34.4637C488.028 35.6797 488.636 37.1517 488.636 38.8797C488.636 40.6717 488.028 42.1757 486.812 43.3917C485.596 44.6077 484.092 45.2157 482.3 45.2157C480.508 45.2157 479.004 44.6077 477.788 43.3917C476.636 42.1757 476.06 40.6717 476.06 38.8797C476.06 37.1517 476.636 35.6797 477.788 34.4637C479.004 33.2477 480.508 32.6397 482.3 32.6397Z" fill="white"/>
<path d="M536.887 4.7997C540.919 4.7997 544.471 5.5677 547.543 7.1037C550.615 8.5757 552.983 10.5917 554.647 13.1517C556.311 15.6477 557.143 18.3997 557.143 21.4077C557.143 25.2477 555.895 28.6077 553.399 31.4877C550.903 34.3037 547.863 36.0637 544.279 36.7677C548.439 37.0877 551.959 38.6557 554.839 41.4717C557.783 44.2877 559.255 48.1277 559.255 52.9917C559.255 56.7677 558.295 60.1917 556.375 63.2637C554.455 66.3357 551.735 68.7357 548.215 70.4637C544.759 72.1917 540.791 73.0557 536.311 73.0557C532.407 73.0557 528.631 72.3197 524.983 70.8477C521.399 69.3757 518.423 67.1997 516.055 64.3197L521.431 59.9037C523.223 62.0157 525.399 63.6477 527.959 64.7997C530.583 65.8877 533.303 66.4317 536.119 66.4317C540.727 66.4317 544.311 65.2477 546.871 62.8797C549.495 60.4477 550.807 57.1517 550.807 52.9917C550.807 44.6077 546.231 40.4157 537.079 40.4157H531.607L532.567 33.9837H536.503C539.959 33.9837 542.903 33.0237 545.335 31.1037C547.767 29.1197 548.983 26.2397 548.983 22.4637C548.983 18.9437 547.799 16.2237 545.431 14.3037C543.127 12.3197 540.151 11.3277 536.503 11.3277C533.751 11.3277 531.287 11.8077 529.111 12.7677C526.999 13.7277 524.791 15.2637 522.487 17.3757L518.071 12.4797C523.447 7.3597 529.719 4.7997 536.887 4.7997Z" fill="white"/>
<path d="M594.449 4.7997C598.481 4.7997 602.033 5.5677 605.105 7.1037C608.177 8.5757 610.545 10.5917 612.209 13.1517C613.873 15.6477 614.705 18.3997 614.705 21.4077C614.705 25.2477 613.457 28.6077 610.961 31.4877C608.465 34.3037 605.425 36.0637 601.841 36.7677C606.001 37.0877 609.521 38.6557 612.401 41.4717C615.345 44.2877 616.817 48.1277 616.817 52.9917C616.817 56.7677 615.857 60.1917 613.937 63.2637C612.017 66.3357 609.297 68.7357 605.777 70.4637C602.321 72.1917 598.353 73.0557 593.873 73.0557C589.969 73.0557 586.193 72.3197 582.545 70.8477C578.961 69.3757 575.985 67.1997 573.617 64.3197L578.993 59.9037C580.785 62.0157 582.961 63.6477 585.521 64.7997C588.145 65.8877 590.865 66.4317 593.681 66.4317C598.289 66.4317 601.873 65.2477 604.433 62.8797C607.057 60.4477 608.369 57.1517 608.369 52.9917C608.369 44.6077 603.793 40.4157 594.641 40.4157H589.169L590.129 33.9837H594.065C597.521 33.9837 600.465 33.0237 602.897 31.1037C605.329 29.1197 606.545 26.2397 606.545 22.4637C606.545 18.9437 605.361 16.2237 602.993 14.3037C600.689 12.3197 597.713 11.3277 594.065 11.3277C591.313 11.3277 588.849 11.8077 586.673 12.7677C584.561 13.7277 582.353 15.2637 580.049 17.3757L575.633 12.4797C581.009 7.3597 587.281 4.7997 594.449 4.7997Z" fill="white"/>
<path d="M652.012 4.7997C656.044 4.7997 659.596 5.5677 662.668 7.1037C665.74 8.5757 668.108 10.5917 669.772 13.1517C671.436 15.6477 672.268 18.3997 672.268 21.4077C672.268 25.2477 671.02 28.6077 668.524 31.4877C666.028 34.3037 662.988 36.0637 659.404 36.7677C663.564 37.0877 667.084 38.6557 669.964 41.4717C672.908 44.2877 674.38 48.1277 674.38 52.9917C674.38 56.7677 673.42 60.1917 671.5 63.2637C669.58 66.3357 666.86 68.7357 663.34 70.4637C659.884 72.1917 655.916 73.0557 651.436 73.0557C647.532 73.0557 643.756 72.3197 640.108 70.8477C636.524 69.3757 633.548 67.1997 631.18 64.3197L636.556 59.9037C638.348 62.0157 640.524 63.6477 643.084 64.7997C645.708 65.8877 648.428 66.4317 651.244 66.4317C655.852 66.4317 659.436 65.2477 661.996 62.8797C664.62 60.4477 665.932 57.1517 665.932 52.9917C665.932 44.6077 661.356 40.4157 652.204 40.4157H646.732L647.692 33.9837H651.628C655.084 33.9837 658.028 33.0237 660.46 31.1037C662.892 29.1197 664.108 26.2397 664.108 22.4637C664.108 18.9437 662.924 16.2237 660.556 14.3037C658.252 12.3197 655.276 11.3277 651.628 11.3277C648.876 11.3277 646.412 11.8077 644.236 12.7677C642.124 13.7277 639.916 15.2637 637.612 17.3757L633.196 12.4797C638.572 7.3597 644.844 4.7997 652.012 4.7997Z" fill="white"/>
<path d="M712.55 4.7997C719.59 4.7997 724.934 7.7437 728.582 13.6317C732.294 19.4557 734.15 27.8717 734.15 38.8797C734.15 49.9517 732.294 58.4317 728.582 64.3197C724.934 70.1437 719.59 73.0557 712.55 73.0557C705.51 73.0557 700.134 70.1437 696.422 64.3197C692.774 58.4317 690.95 49.9517 690.95 38.8797C690.95 27.8717 692.774 19.4557 696.422 13.6317C700.134 7.7437 705.51 4.7997 712.55 4.7997ZM712.55 11.3277C703.782 11.3277 699.398 20.5117 699.398 38.8797C699.398 57.3117 703.782 66.5277 712.55 66.5277C721.318 66.5277 725.702 57.3117 725.702 38.8797C725.702 20.5117 721.318 11.3277 712.55 11.3277ZM712.55 32.6397C714.342 32.6397 715.846 33.2477 717.062 34.4637C718.278 35.6797 718.886 37.1517 718.886 38.8797C718.886 40.6717 718.278 42.1757 717.062 43.3917C715.846 44.6077 714.342 45.2157 712.55 45.2157C710.758 45.2157 709.254 44.6077 708.038 43.3917C706.886 42.1757 706.31 40.6717 706.31 38.8797C706.31 37.1517 706.886 35.6797 708.038 34.4637C709.254 33.2477 710.758 32.6397 712.55 32.6397Z" fill="white"/>
<path d="M934.256 64.6077C934.256 62.2397 935.056 60.2557 936.656 58.6557C938.32 56.9917 940.336 56.1597 942.704 56.1597C945.136 56.1597 947.152 56.9917 948.752 58.6557C950.352 60.2557 951.152 62.2397 951.152 64.6077C951.152 67.0397 950.352 69.0557 948.752 70.6557C947.152 72.2557 945.136 73.0557 942.704 73.0557C940.336 73.0557 938.32 72.2557 936.656 70.6557C935.056 68.9917 934.256 66.9757 934.256 64.6077Z" fill="white"/>
<path d="M1000.36 4.7997C1007.4 4.7997 1012.75 7.7437 1016.39 13.6317C1020.11 19.4557 1021.96 27.8717 1021.96 38.8797C1021.96 49.9517 1020.11 58.4317 1016.39 64.3197C1012.75 70.1437 1007.4 73.0557 1000.36 73.0557C993.323 73.0557 987.947 70.1437 984.235 64.3197C980.587 58.4317 978.763 49.9517 978.763 38.8797C978.763 27.8717 980.587 19.4557 984.235 13.6317C987.947 7.7437 993.323 4.7997 1000.36 4.7997ZM1000.36 11.3277C991.595 11.3277 987.211 20.5117 987.211 38.8797C987.211 57.3117 991.595 66.5277 1000.36 66.5277C1009.13 66.5277 1013.51 57.3117 1013.51 38.8797C1013.51 20.5117 1009.13 11.3277 1000.36 11.3277ZM1000.36 32.6397C1002.15 32.6397 1003.66 33.2477 1004.87 34.4637C1006.09 35.6797 1006.7 37.1517 1006.7 38.8797C1006.7 40.6717 1006.09 42.1757 1004.87 43.3917C1003.66 44.6077 1002.15 45.2157 1000.36 45.2157C998.571 45.2157 997.067 44.6077 995.851 43.3917C994.699 42.1757 994.123 40.6717 994.123 38.8797C994.123 37.1517 994.699 35.6797 995.851 34.4637C997.067 33.2477 998.571 32.6397 1000.36 32.6397Z" fill="white"/>
<path d="M1057.93 4.7997C1064.97 4.7997 1070.31 7.7437 1073.96 13.6317C1077.67 19.4557 1079.53 27.8717 1079.53 38.8797C1079.53 49.9517 1077.67 58.4317 1073.96 64.3197C1070.31 70.1437 1064.97 73.0557 1057.93 73.0557C1050.89 73.0557 1045.51 70.1437 1041.8 64.3197C1038.15 58.4317 1036.33 49.9517 1036.33 38.8797C1036.33 27.8717 1038.15 19.4557 1041.8 13.6317C1045.51 7.7437 1050.89 4.7997 1057.93 4.7997ZM1057.93 11.3277C1049.16 11.3277 1044.77 20.5117 1044.77 38.8797C1044.77 57.3117 1049.16 66.5277 1057.93 66.5277C1066.69 66.5277 1071.08 57.3117 1071.08 38.8797C1071.08 20.5117 1066.69 11.3277 1057.93 11.3277ZM1057.93 32.6397C1059.72 32.6397 1061.22 33.2477 1062.44 34.4637C1063.65 35.6797 1064.26 37.1517 1064.26 38.8797C1064.26 40.6717 1063.65 42.1757 1062.44 43.3917C1061.22 44.6077 1059.72 45.2157 1057.93 45.2157C1056.13 45.2157 1054.63 44.6077 1053.41 43.3917C1052.26 42.1757 1051.69 40.6717 1051.69 38.8797C1051.69 37.1517 1052.26 35.6797 1053.41 34.4637C1054.63 33.2477 1056.13 32.6397 1057.93 32.6397Z" fill="white"/>
<path d="M1115.49 4.7997C1122.53 4.7997 1127.87 7.7437 1131.52 13.6317C1135.23 19.4557 1137.09 27.8717 1137.09 38.8797C1137.09 49.9517 1135.23 58.4317 1131.52 64.3197C1127.87 70.1437 1122.53 73.0557 1115.49 73.0557C1108.45 73.0557 1103.07 70.1437 1099.36 64.3197C1095.71 58.4317 1093.89 49.9517 1093.89 38.8797C1093.89 27.8717 1095.71 19.4557 1099.36 13.6317C1103.07 7.7437 1108.45 4.7997 1115.49 4.7997ZM1115.49 11.3277C1106.72 11.3277 1102.34 20.5117 1102.34 38.8797C1102.34 57.3117 1106.72 66.5277 1115.49 66.5277C1124.26 66.5277 1128.64 57.3117 1128.64 38.8797C1128.64 20.5117 1124.26 11.3277 1115.49 11.3277ZM1115.49 32.6397C1117.28 32.6397 1118.78 33.2477 1120 34.4637C1121.22 35.6797 1121.82 37.1517 1121.82 38.8797C1121.82 40.6717 1121.22 42.1757 1120 43.3917C1118.78 44.6077 1117.28 45.2157 1115.49 45.2157C1113.7 45.2157 1112.19 44.6077 1110.98 43.3917C1109.82 42.1757 1109.25 40.6717 1109.25 38.8797C1109.25 37.1517 1109.82 35.6797 1110.98 34.4637C1112.19 33.2477 1113.7 32.6397 1115.49 32.6397Z" fill="white"/>
<path d="M1193.88 65.4717V71.9997H1155.77V65.4717H1171.99V14.6877L1156.92 23.8077L1153.37 18.1437L1173.05 5.8557H1180.15V65.4717H1193.88Z" fill="white"/>
<path d="M1230.61 4.7997C1237.65 4.7997 1243 7.7437 1246.64 13.6317C1250.36 19.4557 1252.21 27.8717 1252.21 38.8797C1252.21 49.9517 1250.36 58.4317 1246.64 64.3197C1243 70.1437 1237.65 73.0557 1230.61 73.0557C1223.57 73.0557 1218.2 70.1437 1214.48 64.3197C1210.84 58.4317 1209.01 49.9517 1209.01 38.8797C1209.01 27.8717 1210.84 19.4557 1214.48 13.6317C1218.2 7.7437 1223.57 4.7997 1230.61 4.7997ZM1230.61 11.3277C1221.84 11.3277 1217.46 20.5117 1217.46 38.8797C1217.46 57.3117 1221.84 66.5277 1230.61 66.5277C1239.38 66.5277 1243.76 57.3117 1243.76 38.8797C1243.76 20.5117 1239.38 11.3277 1230.61 11.3277ZM1230.61 32.6397C1232.4 32.6397 1233.91 33.2477 1235.12 34.4637C1236.34 35.6797 1236.95 37.1517 1236.95 38.8797C1236.95 40.6717 1236.34 42.1757 1235.12 43.3917C1233.91 44.6077 1232.4 45.2157 1230.61 45.2157C1228.82 45.2157 1227.32 44.6077 1226.1 43.3917C1224.95 42.1757 1224.37 40.6717 1224.37 38.8797C1224.37 37.1517 1224.95 35.6797 1226.1 34.4637C1227.32 33.2477 1228.82 32.6397 1230.61 32.6397Z" fill="white"/>
<path d="M1288.18 4.7997C1295.22 4.7997 1300.56 7.7437 1304.21 13.6317C1307.92 19.4557 1309.78 27.8717 1309.78 38.8797C1309.78 49.9517 1307.92 58.4317 1304.21 64.3197C1300.56 70.1437 1295.22 73.0557 1288.18 73.0557C1281.14 73.0557 1275.76 70.1437 1272.05 64.3197C1268.4 58.4317 1266.58 49.9517 1266.58 38.8797C1266.58 27.8717 1268.4 19.4557 1272.05 13.6317C1275.76 7.7437 1281.14 4.7997 1288.18 4.7997ZM1288.18 11.3277C1279.41 11.3277 1275.02 20.5117 1275.02 38.8797C1275.02 57.3117 1279.41 66.5277 1288.18 66.5277C1296.94 66.5277 1301.33 57.3117 1301.33 38.8797C1301.33 20.5117 1296.94 11.3277 1288.18 11.3277ZM1288.18 32.6397C1289.97 32.6397 1291.47 33.2477 1292.69 34.4637C1293.9 35.6797 1294.51 37.1517 1294.51 38.8797C1294.51 40.6717 1293.9 42.1757 1292.69 43.3917C1291.47 44.6077 1289.97 45.2157 1288.18 45.2157C1286.38 45.2157 1284.88 44.6077 1283.66 43.3917C1282.51 42.1757 1281.94 40.6717 1281.94 38.8797C1281.94 37.1517 1282.51 35.6797 1283.66 34.4637C1284.88 33.2477 1286.38 32.6397 1288.18 32.6397Z" fill="white"/>
<path d="M1337.19 64.6077C1337.19 62.2397 1337.99 60.2557 1339.59 58.6557C1341.26 56.9917 1343.27 56.1597 1345.64 56.1597C1348.07 56.1597 1350.09 56.9917 1351.69 58.6557C1353.29 60.2557 1354.09 62.2397 1354.09 64.6077C1354.09 67.0397 1353.29 69.0557 1351.69 70.6557C1350.09 72.2557 1348.07 73.0557 1345.64 73.0557C1343.27 73.0557 1341.26 72.2557 1339.59 70.6557C1337.99 68.9917 1337.19 66.9757 1337.19 64.6077Z" fill="white"/>
<path d="M1575.99 4.7997C1583.03 4.7997 1588.37 7.7437 1592.02 13.6317C1595.73 19.4557 1597.59 27.8717 1597.59 38.8797C1597.59 49.9517 1595.73 58.4317 1592.02 64.3197C1588.37 70.1437 1583.03 73.0557 1575.99 73.0557C1568.95 73.0557 1563.57 70.1437 1559.86 64.3197C1556.21 58.4317 1554.39 49.9517 1554.39 38.8797C1554.39 27.8717 1556.21 19.4557 1559.86 13.6317C1563.57 7.7437 1568.95 4.7997 1575.99 4.7997ZM1575.99 11.3277C1567.22 11.3277 1562.84 20.5117 1562.84 38.8797C1562.84 57.3117 1567.22 66.5277 1575.99 66.5277C1584.76 66.5277 1589.14 57.3117 1589.14 38.8797C1589.14 20.5117 1584.76 11.3277 1575.99 11.3277ZM1575.99 32.6397C1577.78 32.6397 1579.28 33.2477 1580.5 34.4637C1581.72 35.6797 1582.32 37.1517 1582.32 38.8797C1582.32 40.6717 1581.72 42.1757 1580.5 43.3917C1579.28 44.6077 1577.78 45.2157 1575.99 45.2157C1574.2 45.2157 1572.69 44.6077 1571.48 43.3917C1570.32 42.1757 1569.75 40.6717 1569.75 38.8797C1569.75 37.1517 1570.32 35.6797 1571.48 34.4637C1572.69 33.2477 1574.2 32.6397 1575.99 32.6397Z" fill="white"/>
<path d="M1633.55 4.7997C1640.59 4.7997 1645.93 7.7437 1649.58 13.6317C1653.29 19.4557 1655.15 27.8717 1655.15 38.8797C1655.15 49.9517 1653.29 58.4317 1649.58 64.3197C1645.93 70.1437 1640.59 73.0557 1633.55 73.0557C1626.51 73.0557 1621.13 70.1437 1617.42 64.3197C1613.77 58.4317 1611.95 49.9517 1611.95 38.8797C1611.95 27.8717 1613.77 19.4557 1617.42 13.6317C1621.13 7.7437 1626.51 4.7997 1633.55 4.7997ZM1633.55 11.3277C1624.78 11.3277 1620.4 20.5117 1620.4 38.8797C1620.4 57.3117 1624.78 66.5277 1633.55 66.5277C1642.32 66.5277 1646.7 57.3117 1646.7 38.8797C1646.7 20.5117 1642.32 11.3277 1633.55 11.3277ZM1633.55 32.6397C1635.34 32.6397 1636.85 33.2477 1638.06 34.4637C1639.28 35.6797 1639.89 37.1517 1639.89 38.8797C1639.89 40.6717 1639.28 42.1757 1638.06 43.3917C1636.85 44.6077 1635.34 45.2157 1633.55 45.2157C1631.76 45.2157 1630.25 44.6077 1629.04 43.3917C1627.89 42.1757 1627.31 40.6717 1627.31 38.8797C1627.31 37.1517 1627.89 35.6797 1629.04 34.4637C1630.25 33.2477 1631.76 32.6397 1633.55 32.6397Z" fill="white"/>
<path d="M1691.11 4.7997C1698.15 4.7997 1703.5 7.7437 1707.14 13.6317C1710.86 19.4557 1712.71 27.8717 1712.71 38.8797C1712.71 49.9517 1710.86 58.4317 1707.14 64.3197C1703.5 70.1437 1698.15 73.0557 1691.11 73.0557C1684.07 73.0557 1678.7 70.1437 1674.98 64.3197C1671.34 58.4317 1669.51 49.9517 1669.51 38.8797C1669.51 27.8717 1671.34 19.4557 1674.98 13.6317C1678.7 7.7437 1684.07 4.7997 1691.11 4.7997ZM1691.11 11.3277C1682.34 11.3277 1677.96 20.5117 1677.96 38.8797C1677.96 57.3117 1682.34 66.5277 1691.11 66.5277C1699.88 66.5277 1704.26 57.3117 1704.26 38.8797C1704.26 20.5117 1699.88 11.3277 1691.11 11.3277ZM1691.11 32.6397C1692.9 32.6397 1694.41 33.2477 1695.62 34.4637C1696.84 35.6797 1697.45 37.1517 1697.45 38.8797C1697.45 40.6717 1696.84 42.1757 1695.62 43.3917C1694.41 44.6077 1692.9 45.2157 1691.11 45.2157C1689.32 45.2157 1687.82 44.6077 1686.6 43.3917C1685.45 42.1757 1684.87 40.6717 1684.87 38.8797C1684.87 37.1517 1685.45 35.6797 1686.6 34.4637C1687.82 33.2477 1689.32 32.6397 1691.11 32.6397Z" fill="white"/>
<path d="M1748.68 4.7997C1755.72 4.7997 1761.06 7.7437 1764.71 13.6317C1768.42 19.4557 1770.28 27.8717 1770.28 38.8797C1770.28 49.9517 1768.42 58.4317 1764.71 64.3197C1761.06 70.1437 1755.72 73.0557 1748.68 73.0557C1741.64 73.0557 1736.26 70.1437 1732.55 64.3197C1728.9 58.4317 1727.08 49.9517 1727.08 38.8797C1727.08 27.8717 1728.9 19.4557 1732.55 13.6317C1736.26 7.7437 1741.64 4.7997 1748.68 4.7997ZM1748.68 11.3277C1739.91 11.3277 1735.52 20.5117 1735.52 38.8797C1735.52 57.3117 1739.91 66.5277 1748.68 66.5277C1757.44 66.5277 1761.83 57.3117 1761.83 38.8797C1761.83 20.5117 1757.44 11.3277 1748.68 11.3277ZM1748.68 32.6397C1750.47 32.6397 1751.97 33.2477 1753.19 34.4637C1754.4 35.6797 1755.01 37.1517 1755.01 38.8797C1755.01 40.6717 1754.4 42.1757 1753.19 43.3917C1751.97 44.6077 1750.47 45.2157 1748.68 45.2157C1746.88 45.2157 1745.38 44.6077 1744.16 43.3917C1743.01 42.1757 1742.44 40.6717 1742.44 38.8797C1742.44 37.1517 1743.01 35.6797 1744.16 34.4637C1745.38 33.2477 1746.88 32.6397 1748.68 32.6397Z" fill="white"/>
<path d="M1827.07 65.4717V71.9997H1788.96V65.4717H1805.18V14.6877L1790.11 23.8077L1786.56 18.1437L1806.24 5.8557H1813.34V65.4717H1827.07Z" fill="white"/>
<path d="M1863.8 4.7997C1870.84 4.7997 1876.18 7.7437 1879.83 13.6317C1883.54 19.4557 1885.4 27.8717 1885.4 38.8797C1885.4 49.9517 1883.54 58.4317 1879.83 64.3197C1876.18 70.1437 1870.84 73.0557 1863.8 73.0557C1856.76 73.0557 1851.38 70.1437 1847.67 64.3197C1844.02 58.4317 1842.2 49.9517 1842.2 38.8797C1842.2 27.8717 1844.02 19.4557 1847.67 13.6317C1851.38 7.7437 1856.76 4.7997 1863.8 4.7997ZM1863.8 11.3277C1855.03 11.3277 1850.65 20.5117 1850.65 38.8797C1850.65 57.3117 1855.03 66.5277 1863.8 66.5277C1872.57 66.5277 1876.95 57.3117 1876.95 38.8797C1876.95 20.5117 1872.57 11.3277 1863.8 11.3277ZM1863.8 32.6397C1865.59 32.6397 1867.1 33.2477 1868.31 34.4637C1869.53 35.6797 1870.14 37.1517 1870.14 38.8797C1870.14 40.6717 1869.53 42.1757 1868.31 43.3917C1867.1 44.6077 1865.59 45.2157 1863.8 45.2157C1862.01 45.2157 1860.5 44.6077 1859.29 43.3917C1858.14 42.1757 1857.56 40.6717 1857.56 38.8797C1857.56 37.1517 1858.14 35.6797 1859.29 34.4637C1860.5 33.2477 1862.01 32.6397 1863.8 32.6397Z" fill="white"/>
<path d="M1921.36 4.7997C1928.4 4.7997 1933.75 7.7437 1937.39 13.6317C1941.11 19.4557 1942.96 27.8717 1942.96 38.8797C1942.96 49.9517 1941.11 58.4317 1937.39 64.3197C1933.75 70.1437 1928.4 73.0557 1921.36 73.0557C1914.32 73.0557 1908.95 70.1437 1905.23 64.3197C1901.59 58.4317 1899.76 49.9517 1899.76 38.8797C1899.76 27.8717 1901.59 19.4557 1905.23 13.6317C1908.95 7.7437 1914.32 4.7997 1921.36 4.7997ZM1921.36 11.3277C1912.59 11.3277 1908.21 20.5117 1908.21 38.8797C1908.21 57.3117 1912.59 66.5277 1921.36 66.5277C1930.13 66.5277 1934.51 57.3117 1934.51 38.8797C1934.51 20.5117 1930.13 11.3277 1921.36 11.3277ZM1921.36 32.6397C1923.15 32.6397 1924.66 33.2477 1925.87 34.4637C1927.09 35.6797 1927.7 37.1517 1927.7 38.8797C1927.7 40.6717 1927.09 42.1757 1925.87 43.3917C1924.66 44.6077 1923.15 45.2157 1921.36 45.2157C1919.57 45.2157 1918.07 44.6077 1916.85 43.3917C1915.7 42.1757 1915.12 40.6717 1915.12 38.8797C1915.12 37.1517 1915.7 35.6797 1916.85 34.4637C1918.07 33.2477 1919.57 32.6397 1921.36 32.6397Z" fill="white"/>
<path d="M1978.93 4.7997C1985.97 4.7997 1991.31 7.7437 1994.96 13.6317C1998.67 19.4557 2000.53 27.8717 2000.53 38.8797C2000.53 49.9517 1998.67 58.4317 1994.96 64.3197C1991.31 70.1437 1985.97 73.0557 1978.93 73.0557C1971.89 73.0557 1966.51 70.1437 1962.8 64.3197C1959.15 58.4317 1957.33 49.9517 1957.33 38.8797C1957.33 27.8717 1959.15 19.4557 1962.8 13.6317C1966.51 7.7437 1971.89 4.7997 1978.93 4.7997ZM1978.93 11.3277C1970.16 11.3277 1965.77 20.5117 1965.77 38.8797C1965.77 57.3117 1970.16 66.5277 1978.93 66.5277C1987.69 66.5277 1992.08 57.3117 1992.08 38.8797C1992.08 20.5117 1987.69 11.3277 1978.93 11.3277ZM1978.93 32.6397C1980.72 32.6397 1982.22 33.2477 1983.44 34.4637C1984.65 35.6797 1985.26 37.1517 1985.26 38.8797C1985.26 40.6717 1984.65 42.1757 1983.44 43.3917C1982.22 44.6077 1980.72 45.2157 1978.93 45.2157C1977.13 45.2157 1975.63 44.6077 1974.41 43.3917C1973.26 42.1757 1972.69 40.6717 1972.69 38.8797C1972.69 37.1517 1973.26 35.6797 1974.41 34.4637C1975.63 33.2477 1977.13 32.6397 1978.93 32.6397Z" fill="white"/>
<path d="M2036.49 4.7997C2043.53 4.7997 2048.87 7.7437 2052.52 13.6317C2056.23 19.4557 2058.09 27.8717 2058.09 38.8797C2058.09 49.9517 2056.23 58.4317 2052.52 64.3197C2048.87 70.1437 2043.53 73.0557 2036.49 73.0557C2029.45 73.0557 2024.07 70.1437 2020.36 64.3197C2016.71 58.4317 2014.89 49.9517 2014.89 38.8797C2014.89 27.8717 2016.71 19.4557 2020.36 13.6317C2024.07 7.7437 2029.45 4.7997 2036.49 4.7997ZM2036.49 11.3277C2027.72 11.3277 2023.34 20.5117 2023.34 38.8797C2023.34 57.3117 2027.72 66.5277 2036.49 66.5277C2045.26 66.5277 2049.64 57.3117 2049.64 38.8797C2049.64 20.5117 2045.26 11.3277 2036.49 11.3277ZM2036.49 32.6397C2038.28 32.6397 2039.78 33.2477 2041 34.4637C2042.22 35.6797 2042.82 37.1517 2042.82 38.8797C2042.82 40.6717 2042.22 42.1757 2041 43.3917C2039.78 44.6077 2038.28 45.2157 2036.49 45.2157C2034.7 45.2157 2033.19 44.6077 2031.98 43.3917C2030.82 42.1757 2030.25 40.6717 2030.25 38.8797C2030.25 37.1517 2030.82 35.6797 2031.98 34.4637C2033.19 33.2477 2034.7 32.6397 2036.49 32.6397Z" fill="white"/>
<path d="M2085.51 64.6077C2085.51 62.2397 2086.31 60.2557 2087.91 58.6557C2089.57 56.9917 2091.59 56.1597 2093.95 56.1597C2096.39 56.1597 2098.4 56.9917 2100 58.6557C2101.6 60.2557 2102.4 62.2397 2102.4 64.6077C2102.4 67.0397 2101.6 69.0557 2100 70.6557C2098.4 72.2557 2096.39 73.0557 2093.95 73.0557C2091.59 73.0557 2089.57 72.2557 2087.91 70.6557C2086.31 68.9917 2085.51 66.9757 2085.51 64.6077Z" fill="white"/>
<path d="M2324.3 4.7997C2331.34 4.7997 2336.68 7.7437 2340.33 13.6317C2344.04 19.4557 2345.9 27.8717 2345.9 38.8797C2345.9 49.9517 2344.04 58.4317 2340.33 64.3197C2336.68 70.1437 2331.34 73.0557 2324.3 73.0557C2317.26 73.0557 2311.88 70.1437 2308.17 64.3197C2304.52 58.4317 2302.7 49.9517 2302.7 38.8797C2302.7 27.8717 2304.52 19.4557 2308.17 13.6317C2311.88 7.7437 2317.26 4.7997 2324.3 4.7997ZM2324.3 11.3277C2315.53 11.3277 2311.15 20.5117 2311.15 38.8797C2311.15 57.3117 2315.53 66.5277 2324.3 66.5277C2333.07 66.5277 2337.45 57.3117 2337.45 38.8797C2337.45 20.5117 2333.07 11.3277 2324.3 11.3277ZM2324.3 32.6397C2326.09 32.6397 2327.6 33.2477 2328.81 34.4637C2330.03 35.6797 2330.64 37.1517 2330.64 38.8797C2330.64 40.6717 2330.03 42.1757 2328.81 43.3917C2327.6 44.6077 2326.09 45.2157 2324.3 45.2157C2322.51 45.2157 2321 44.6077 2319.79 43.3917C2318.64 42.1757 2318.06 40.6717 2318.06 38.8797C2318.06 37.1517 2318.64 35.6797 2319.79 34.4637C2321 33.2477 2322.51 32.6397 2324.3 32.6397Z" fill="white"/>
<path d="M2381.86 4.7997C2388.9 4.7997 2394.25 7.7437 2397.89 13.6317C2401.61 19.4557 2403.46 27.8717 2403.46 38.8797C2403.46 49.9517 2401.61 58.4317 2397.89 64.3197C2394.25 70.1437 2388.9 73.0557 2381.86 73.0557C2374.82 73.0557 2369.45 70.1437 2365.73 64.3197C2362.09 58.4317 2360.26 49.9517 2360.26 38.8797C2360.26 27.8717 2362.09 19.4557 2365.73 13.6317C2369.45 7.7437 2374.82 4.7997 2381.86 4.7997ZM2381.86 11.3277C2373.09 11.3277 2368.71 20.5117 2368.71 38.8797C2368.71 57.3117 2373.09 66.5277 2381.86 66.5277C2390.63 66.5277 2395.01 57.3117 2395.01 38.8797C2395.01 20.5117 2390.63 11.3277 2381.86 11.3277ZM2381.86 32.6397C2383.65 32.6397 2385.16 33.2477 2386.37 34.4637C2387.59 35.6797 2388.2 37.1517 2388.2 38.8797C2388.2 40.6717 2387.59 42.1757 2386.37 43.3917C2385.16 44.6077 2383.65 45.2157 2381.86 45.2157C2380.07 45.2157 2378.57 44.6077 2377.35 43.3917C2376.2 42.1757 2375.62 40.6717 2375.62 38.8797C2375.62 37.1517 2376.2 35.6797 2377.35 34.4637C2378.57 33.2477 2380.07 32.6397 2381.86 32.6397Z" fill="white"/>
<path d="M2460.26 65.4717V71.9997H2422.15V65.4717H2438.37V14.6877L2423.3 23.8077L2419.75 18.1437L2439.43 5.8557H2446.53V65.4717H2460.26Z" fill="white"/>
<path d="M2517.82 65.4717V71.9997H2479.71V65.4717H2495.93V14.6877L2480.86 23.8077L2477.31 18.1437L2496.99 5.8557H2504.09V65.4717H2517.82Z" fill="white"/>
<path d="M2554.55 4.7997C2561.59 4.7997 2566.93 7.7437 2570.58 13.6317C2574.29 19.4557 2576.15 27.8717 2576.15 38.8797C2576.15 49.9517 2574.29 58.4317 2570.58 64.3197C2566.93 70.1437 2561.59 73.0557 2554.55 73.0557C2547.51 73.0557 2542.13 70.1437 2538.42 64.3197C2534.77 58.4317 2532.95 49.9517 2532.95 38.8797C2532.95 27.8717 2534.77 19.4557 2538.42 13.6317C2542.13 7.7437 2547.51 4.7997 2554.55 4.7997ZM2554.55 11.3277C2545.78 11.3277 2541.4 20.5117 2541.4 38.8797C2541.4 57.3117 2545.78 66.5277 2554.55 66.5277C2563.32 66.5277 2567.7 57.3117 2567.7 38.8797C2567.7 20.5117 2563.32 11.3277 2554.55 11.3277ZM2554.55 32.6397C2556.34 32.6397 2557.85 33.2477 2559.06 34.4637C2560.28 35.6797 2560.89 37.1517 2560.89 38.8797C2560.89 40.6717 2560.28 42.1757 2559.06 43.3917C2557.85 44.6077 2556.34 45.2157 2554.55 45.2157C2552.76 45.2157 2551.25 44.6077 2550.04 43.3917C2548.89 42.1757 2548.31 40.6717 2548.31 38.8797C2548.31 37.1517 2548.89 35.6797 2550.04 34.4637C2551.25 33.2477 2552.76 32.6397 2554.55 32.6397Z" fill="white"/>
<path d="M2899.93 4.7997C2906.97 4.7997 2912.31 7.7437 2915.96 13.6317C2919.67 19.4557 2921.53 27.8717 2921.53 38.8797C2921.53 49.9517 2919.67 58.4317 2915.96 64.3197C2912.31 70.1437 2906.97 73.0557 2899.93 73.0557C2892.89 73.0557 2887.51 70.1437 2883.8 64.3197C2880.15 58.4317 2878.33 49.9517 2878.33 38.8797C2878.33 27.8717 2880.15 19.4557 2883.8 13.6317C2887.51 7.7437 2892.89 4.7997 2899.93 4.7997ZM2899.93 11.3277C2891.16 11.3277 2886.77 20.5117 2886.77 38.8797C2886.77 57.3117 2891.16 66.5277 2899.93 66.5277C2908.69 66.5277 2913.08 57.3117 2913.08 38.8797C2913.08 20.5117 2908.69 11.3277 2899.93 11.3277ZM2899.93 32.6397C2901.72 32.6397 2903.22 33.2477 2904.44 34.4637C2905.65 35.6797 2906.26 37.1517 2906.26 38.8797C2906.26 40.6717 2905.65 42.1757 2904.44 43.3917C2903.22 44.6077 2901.72 45.2157 2899.93 45.2157C2898.13 45.2157 2896.63 44.6077 2895.41 43.3917C2894.26 42.1757 2893.69 40.6717 2893.69 38.8797C2893.69 37.1517 2894.26 35.6797 2895.41 34.4637C2896.63 33.2477 2898.13 32.6397 2899.93 32.6397Z" fill="white"/>
<path d="M2957.49 4.7997C2964.53 4.7997 2969.87 7.7437 2973.52 13.6317C2977.23 19.4557 2979.09 27.8717 2979.09 38.8797C2979.09 49.9517 2977.23 58.4317 2973.52 64.3197C2969.87 70.1437 2964.53 73.0557 2957.49 73.0557C2950.45 73.0557 2945.07 70.1437 2941.36 64.3197C2937.71 58.4317 2935.89 49.9517 2935.89 38.8797C2935.89 27.8717 2937.71 19.4557 2941.36 13.6317C2945.07 7.7437 2950.45 4.7997 2957.49 4.7997ZM2957.49 11.3277C2948.72 11.3277 2944.34 20.5117 2944.34 38.8797C2944.34 57.3117 2948.72 66.5277 2957.49 66.5277C2966.26 66.5277 2970.64 57.3117 2970.64 38.8797C2970.64 20.5117 2966.26 11.3277 2957.49 11.3277ZM2957.49 32.6397C2959.28 32.6397 2960.78 33.2477 2962 34.4637C2963.22 35.6797 2963.82 37.1517 2963.82 38.8797C2963.82 40.6717 2963.22 42.1757 2962 43.3917C2960.78 44.6077 2959.28 45.2157 2957.49 45.2157C2955.7 45.2157 2954.19 44.6077 2952.98 43.3917C2951.82 42.1757 2951.25 40.6717 2951.25 38.8797C2951.25 37.1517 2951.82 35.6797 2952.98 34.4637C2954.19 33.2477 2955.7 32.6397 2957.49 32.6397Z" fill="white"/>
<path d="M3035.88 65.4717V71.9997H2997.77V65.4717H3013.99V14.6877L2998.92 23.8077L2995.37 18.1437L3015.05 5.8557H3022.15V65.4717H3035.88Z" fill="white"/>
<path d="M3179.19 64.6077C3179.19 62.2397 3179.99 60.2557 3181.59 58.6557C3183.26 56.9917 3185.27 56.1597 3187.64 56.1597C3190.07 56.1597 3192.09 56.9917 3193.69 58.6557C3195.29 60.2557 3196.09 62.2397 3196.09 64.6077C3196.09 67.0397 3195.29 69.0557 3193.69 70.6557C3192.09 72.2557 3190.07 73.0557 3187.64 73.0557C3185.27 73.0557 3183.26 72.2557 3181.59 70.6557C3179.99 68.9917 3179.19 66.9757 3179.19 64.6077Z" fill="white"/>
<path d="M3245.3 4.7997C3252.34 4.7997 3257.68 7.7437 3261.33 13.6317C3265.04 19.4557 3266.9 27.8717 3266.9 38.8797C3266.9 49.9517 3265.04 58.4317 3261.33 64.3197C3257.68 70.1437 3252.34 73.0557 3245.3 73.0557C3238.26 73.0557 3232.88 70.1437 3229.17 64.3197C3225.52 58.4317 3223.7 49.9517 3223.7 38.8797C3223.7 27.8717 3225.52 19.4557 3229.17 13.6317C3232.88 7.7437 3238.26 4.7997 3245.3 4.7997ZM3245.3 11.3277C3236.53 11.3277 3232.15 20.5117 3232.15 38.8797C3232.15 57.3117 3236.53 66.5277 3245.3 66.5277C3254.07 66.5277 3258.45 57.3117 3258.45 38.8797C3258.45 20.5117 3254.07 11.3277 3245.3 11.3277ZM3245.3 32.6397C3247.09 32.6397 3248.6 33.2477 3249.81 34.4637C3251.03 35.6797 3251.64 37.1517 3251.64 38.8797C3251.64 40.6717 3251.03 42.1757 3249.81 43.3917C3248.6 44.6077 3247.09 45.2157 3245.3 45.2157C3243.51 45.2157 3242 44.6077 3240.79 43.3917C3239.64 42.1757 3239.06 40.6717 3239.06 38.8797C3239.06 37.1517 3239.64 35.6797 3240.79 34.4637C3242 33.2477 3243.51 32.6397 3245.3 32.6397Z" fill="white"/>
<path d="M3302.86 4.7997C3309.9 4.7997 3315.25 7.7437 3318.89 13.6317C3322.61 19.4557 3324.46 27.8717 3324.46 38.8797C3324.46 49.9517 3322.61 58.4317 3318.89 64.3197C3315.25 70.1437 3309.9 73.0557 3302.86 73.0557C3295.82 73.0557 3290.45 70.1437 3286.73 64.3197C3283.09 58.4317 3281.26 49.9517 3281.26 38.8797C3281.26 27.8717 3283.09 19.4557 3286.73 13.6317C3290.45 7.7437 3295.82 4.7997 3302.86 4.7997ZM3302.86 11.3277C3294.09 11.3277 3289.71 20.5117 3289.71 38.8797C3289.71 57.3117 3294.09 66.5277 3302.86 66.5277C3311.63 66.5277 3316.01 57.3117 3316.01 38.8797C3316.01 20.5117 3311.63 11.3277 3302.86 11.3277ZM3302.86 32.6397C3304.65 32.6397 3306.16 33.2477 3307.37 34.4637C3308.59 35.6797 3309.2 37.1517 3309.2 38.8797C3309.2 40.6717 3308.59 42.1757 3307.37 43.3917C3306.16 44.6077 3304.65 45.2157 3302.86 45.2157C3301.07 45.2157 3299.57 44.6077 3298.35 43.3917C3297.2 42.1757 3296.62 40.6717 3296.62 38.8797C3296.62 37.1517 3297.2 35.6797 3298.35 34.4637C3299.57 33.2477 3301.07 32.6397 3302.86 32.6397Z" fill="white"/>
<path d="M3360.43 4.7997C3367.47 4.7997 3372.81 7.7437 3376.46 13.6317C3380.17 19.4557 3382.03 27.8717 3382.03 38.8797C3382.03 49.9517 3380.17 58.4317 3376.46 64.3197C3372.81 70.1437 3367.47 73.0557 3360.43 73.0557C3353.39 73.0557 3348.01 70.1437 3344.3 64.3197C3340.65 58.4317 3338.83 49.9517 3338.83 38.8797C3338.83 27.8717 3340.65 19.4557 3344.3 13.6317C3348.01 7.7437 3353.39 4.7997 3360.43 4.7997ZM3360.43 11.3277C3351.66 11.3277 3347.27 20.5117 3347.27 38.8797C3347.27 57.3117 3351.66 66.5277 3360.43 66.5277C3369.19 66.5277 3373.58 57.3117 3373.58 38.8797C3373.58 20.5117 3369.19 11.3277 3360.43 11.3277ZM3360.43 32.6397C3362.22 32.6397 3363.72 33.2477 3364.94 34.4637C3366.15 35.6797 3366.76 37.1517 3366.76 38.8797C3366.76 40.6717 3366.15 42.1757 3364.94 43.3917C3363.72 44.6077 3362.22 45.2157 3360.43 45.2157C3358.63 45.2157 3357.13 44.6077 3355.91 43.3917C3354.76 42.1757 3354.19 40.6717 3354.19 38.8797C3354.19 37.1517 3354.76 35.6797 3355.91 34.4637C3357.13 33.2477 3358.63 32.6397 3360.43 32.6397Z" fill="white"/>
<path d="M3438.82 65.4717V71.9997H3400.71V65.4717H3416.93V14.6877L3401.86 23.8077L3398.31 18.1437L3417.99 5.8557H3425.09V65.4717H3438.82Z" fill="white"/>
<path d="M3475.55 4.7997C3482.59 4.7997 3487.93 7.7437 3491.58 13.6317C3495.29 19.4557 3497.15 27.8717 3497.15 38.8797C3497.15 49.9517 3495.29 58.4317 3491.58 64.3197C3487.93 70.1437 3482.59 73.0557 3475.55 73.0557C3468.51 73.0557 3463.13 70.1437 3459.42 64.3197C3455.77 58.4317 3453.95 49.9517 3453.95 38.8797C3453.95 27.8717 3455.77 19.4557 3459.42 13.6317C3463.13 7.7437 3468.51 4.7997 3475.55 4.7997ZM3475.55 11.3277C3466.78 11.3277 3462.4 20.5117 3462.4 38.8797C3462.4 57.3117 3466.78 66.5277 3475.55 66.5277C3484.32 66.5277 3488.7 57.3117 3488.7 38.8797C3488.7 20.5117 3484.32 11.3277 3475.55 11.3277ZM3475.55 32.6397C3477.34 32.6397 3478.85 33.2477 3480.06 34.4637C3481.28 35.6797 3481.89 37.1517 3481.89 38.8797C3481.89 40.6717 3481.28 42.1757 3480.06 43.3917C3478.85 44.6077 3477.34 45.2157 3475.55 45.2157C3473.76 45.2157 3472.25 44.6077 3471.04 43.3917C3469.89 42.1757 3469.31 40.6717 3469.31 38.8797C3469.31 37.1517 3469.89 35.6797 3471.04 34.4637C3472.25 33.2477 3473.76 32.6397 3475.55 32.6397Z" fill="white"/>
<path d="M3553.94 65.4717V71.9997H3515.83V65.4717H3532.06V14.6877L3516.98 23.8077L3513.43 18.1437L3533.11 5.8557H3540.22V65.4717H3553.94Z" fill="white"/>
<path d="M3567.25 71.9997L3585.88 45.3117L3569.46 21.4077H3579.06L3590.77 40.2237L3602.58 21.4077H3611.89L3595.48 44.9277L3614.1 71.9997H3604.31L3590.39 50.3037L3576.47 71.9997H3567.25Z" fill="white"/>
<path d="M3637.1 28.0317C3641.01 22.9117 3645.84 20.3517 3651.6 20.3517C3658.06 20.3517 3662.83 22.6557 3665.9 27.2637C3668.97 31.8717 3670.51 38.3357 3670.51 46.6557C3670.51 54.5917 3668.75 60.9917 3665.23 65.8557C3661.71 70.6557 3656.78 73.0557 3650.45 73.0557C3644.62 73.0557 3640.05 70.9437 3636.72 66.7197L3636.14 71.9997H3629.04V1.0557L3637.1 0.0957031V28.0317ZM3648.62 66.5277C3652.85 66.5277 3656.08 64.8637 3658.32 61.5357C3660.62 58.2077 3661.77 53.2477 3661.77 46.6557C3661.77 40.1277 3660.75 35.1997 3658.7 31.8717C3656.72 28.5437 3653.74 26.8797 3649.77 26.8797C3647.21 26.8797 3644.85 27.6477 3642.67 29.1837C3640.56 30.7197 3638.7 32.6397 3637.1 34.9437V59.9997C3638.45 62.0477 3640.11 63.6477 3642.09 64.7997C3644.08 65.9517 3646.25 66.5277 3648.62 66.5277Z" fill="white"/>
<path d="M3705.8 4.7997C3712.84 4.7997 3718.18 7.7437 3721.83 13.6317C3725.54 19.4557 3727.4 27.8717 3727.4 38.8797C3727.4 49.9517 3725.54 58.4317 3721.83 64.3197C3718.18 70.1437 3712.84 73.0557 3705.8 73.0557C3698.76 73.0557 3693.38 70.1437 3689.67 64.3197C3686.02 58.4317 3684.2 49.9517 3684.2 38.8797C3684.2 27.8717 3686.02 19.4557 3689.67 13.6317C3693.38 7.7437 3698.76 4.7997 3705.8 4.7997ZM3705.8 11.3277C3697.03 11.3277 3692.65 20.5117 3692.65 38.8797C3692.65 57.3117 3697.03 66.5277 3705.8 66.5277C3714.57 66.5277 3718.95 57.3117 3718.95 38.8797C3718.95 20.5117 3714.57 11.3277 3705.8 11.3277ZM3705.8 32.6397C3707.59 32.6397 3709.1 33.2477 3710.31 34.4637C3711.53 35.6797 3712.14 37.1517 3712.14 38.8797C3712.14 40.6717 3711.53 42.1757 3710.31 43.3917C3709.1 44.6077 3707.59 45.2157 3705.8 45.2157C3704.01 45.2157 3702.5 44.6077 3701.29 43.3917C3700.14 42.1757 3699.56 40.6717 3699.56 38.8797C3699.56 37.1517 3700.14 35.6797 3701.29 34.4637C3702.5 33.2477 3704.01 32.6397 3705.8 32.6397Z" fill="white"/>
<path d="M42.6322 180.472V187H4.5202V180.472H20.7442V129.688L5.67219 138.808L2.1202 133.144L21.8002 120.856H28.9042V180.472H42.6322Z" fill="white"/>
<path d="M74.2747 116.056H84.4507L82.9147 141.016H75.8107L74.2747 116.056Z" fill="white"/>
<path d="M330.445 180.472V187H292.333V180.472H308.557V129.688L293.485 138.808L289.933 133.144L309.613 120.856H316.717V180.472H330.445Z" fill="white"/>
<path d="M388.007 180.472V187H349.895V180.472H366.119V129.688L351.047 138.808L347.495 133.144L367.175 120.856H374.279V180.472H388.007Z" fill="white"/>
<path d="M445.57 180.472V187H407.458V180.472H423.682V129.688L408.61 138.808L405.058 133.144L424.738 120.856H431.842V180.472H445.57Z" fill="white"/>
<path d="M643.852 118.36L648.268 111.448L665.932 122.872L663.34 127.288L643.852 118.36Z" fill="white"/>
<path d="M733.382 180.472V187H695.27V180.472H711.494V129.688L696.422 138.808L692.87 133.144L712.55 120.856H719.654V180.472H733.382Z" fill="white"/>
<path d="M904.438 116.056V187H897.334L896.566 180.376C894.71 182.936 892.566 184.856 890.134 186.136C887.702 187.416 885.078 188.056 882.262 188.056C875.862 188.056 871.03 185.72 867.766 181.048C864.566 176.376 862.966 169.944 862.966 161.752C862.966 156.696 863.766 152.184 865.366 148.216C866.966 144.184 869.238 141.048 872.182 138.808C875.19 136.504 878.71 135.352 882.742 135.352C888.31 135.352 892.854 137.368 896.374 141.4V115.096L904.438 116.056ZM884.854 141.88C880.63 141.88 877.366 143.544 875.062 146.872C872.822 150.2 871.702 155.16 871.702 161.752C871.702 168.28 872.726 173.24 874.774 176.632C876.886 179.96 879.926 181.624 883.894 181.624C888.694 181.624 892.854 178.936 896.374 173.56V148.408C894.966 146.296 893.27 144.696 891.286 143.608C889.302 142.456 887.158 141.88 884.854 141.88Z" fill="white"/>
<path d="M963.632 180.472V187H925.52V180.472H941.744V129.688L926.672 138.808L923.12 133.144L942.8 120.856H949.904V180.472H963.632Z" fill="white"/>
<path d="M1025.03 141.208C1025.03 148.568 1022.76 153.944 1018.22 157.336C1013.67 160.728 1007.43 162.424 999.499 162.424H990.955V187H982.699V120.856H999.499C1007.63 120.856 1013.9 122.552 1018.31 125.944C1022.79 129.336 1025.03 134.424 1025.03 141.208ZM1016.11 141.304C1016.11 136.504 1014.7 133.016 1011.88 130.84C1009.13 128.6 1005.35 127.48 1000.55 127.48H990.955V155.8H1000.27C1005.26 155.8 1009.13 154.712 1011.88 152.536C1014.7 150.36 1016.11 146.616 1016.11 141.304Z" fill="white"/>
<path d="M1052.84 116.056H1063.01L1061.48 141.016H1054.37L1052.84 116.056Z" fill="white"/>
<path d="M1219.48 118.36L1223.89 111.448L1241.56 122.872L1238.96 127.288L1219.48 118.36Z" fill="white"/>
<path d="M1292.4 187H1283.95V161.56L1261.58 120.856H1270.8L1288.37 154.072L1306.13 120.856H1314.77L1292.4 161.464V187Z" fill="white"/>
<path d="M1366.57 180.472V187H1328.46V180.472H1344.68V129.688L1329.61 138.808L1326.06 133.144L1345.74 120.856H1352.84V180.472H1366.57Z" fill="white"/>
<path d="M1379.88 187L1398.5 160.312L1382.08 136.408H1391.68L1403.4 155.224L1415.2 136.408H1424.52L1408.1 159.928L1426.72 187H1416.93L1403.01 165.304L1389.09 187H1379.88Z" fill="white"/>
<path d="M1564.85 118.36L1569.27 111.448L1586.93 122.872L1584.34 127.288L1564.85 118.36Z" fill="white"/>
<path d="M1654.38 180.472V187H1616.27V180.472H1632.49V129.688L1617.42 138.808L1613.87 133.144L1633.55 120.856H1640.65V180.472H1654.38Z" fill="white"/>
<path d="M1711.94 180.472V187H1673.83V180.472H1690.06V129.688L1674.98 138.808L1671.43 133.144L1691.11 120.856H1698.22V180.472H1711.94Z" fill="white"/>
<path d="M1769.51 180.472V187H1731.4V180.472H1747.62V129.688L1732.55 138.808L1729 133.144L1748.68 120.856H1755.78V180.472H1769.51Z" fill="white"/>
<path d="M1967.79 118.36L1972.21 111.448L1989.87 122.872L1987.28 127.288L1967.79 118.36Z" fill="white"/>
<path d="M2040.71 187H2032.26V161.56L2009.9 120.856H2019.11L2036.68 154.072L2054.44 120.856H2063.08L2040.71 161.464V187Z" fill="white"/>
<path d="M2114.88 180.472V187H2076.77V180.472H2092.99V129.688L2077.92 138.808L2074.37 133.144L2094.05 120.856H2101.15V180.472H2114.88Z" fill="white"/>
<path d="M2172.44 180.472V187H2134.33V180.472H2150.56V129.688L2135.48 138.808L2131.93 133.144L2151.61 120.856H2158.72V180.472H2172.44Z" fill="white"/>
<path d="M2200.63 179.608C2200.63 177.24 2201.43 175.256 2203.03 173.656C2204.7 171.992 2206.71 171.16 2209.08 171.16C2211.51 171.16 2213.53 171.992 2215.13 173.656C2216.73 175.256 2217.53 177.24 2217.53 179.608C2217.53 182.04 2216.73 184.056 2215.13 185.656C2213.53 187.256 2211.51 188.056 2209.08 188.056C2206.71 188.056 2204.7 187.256 2203.03 185.656C2201.43 183.992 2200.63 181.976 2200.63 179.608Z" fill="white"/>
<path d="M2313.16 118.36L2317.58 111.448L2335.24 122.872L2332.65 127.288L2313.16 118.36Z" fill="white"/>
<path d="M2402.69 180.472V187H2364.58V180.472H2380.81V129.688L2365.73 138.808L2362.18 133.144L2381.86 120.856H2388.97V180.472H2402.69Z" fill="white"/>
<path d="M2460.26 180.472V187H2422.15V180.472H2438.37V129.688L2423.3 138.808L2419.75 133.144L2439.43 120.856H2446.53V180.472H2460.26Z" fill="white"/>
<path d="M2517.82 180.472V187H2479.71V180.472H2495.93V129.688L2480.86 138.808L2477.31 133.144L2496.99 120.856H2504.09V180.472H2517.82Z" fill="white"/>
<path d="M2549.46 116.056H2559.64L2558.1 141.016H2551L2549.46 116.056Z" fill="white"/>
<path d="M2888.79 118.36L2893.21 111.448L2910.87 122.872L2908.28 127.288L2888.79 118.36Z" fill="white"/>
<path d="M2978.32 180.472V187H2940.21V180.472H2956.43V129.688L2941.36 138.808L2937.81 133.144L2957.49 120.856H2964.59V180.472H2978.32Z" fill="white"/>
<path d="M3009.96 116.056H3020.14L3018.6 141.016H3011.5L3009.96 116.056Z" fill="white"/>
<path d="M3149.38 116.056V187H3142.27L3141.5 180.376C3139.65 182.936 3137.5 184.856 3135.07 186.136C3132.64 187.416 3130.02 188.056 3127.2 188.056C3120.8 188.056 3115.97 185.72 3112.7 181.048C3109.5 176.376 3107.9 169.944 3107.9 161.752C3107.9 156.696 3108.7 152.184 3110.3 148.216C3111.9 144.184 3114.18 141.048 3117.12 138.808C3120.13 136.504 3123.65 135.352 3127.68 135.352C3133.25 135.352 3137.79 137.368 3141.31 141.4V115.096L3149.38 116.056ZM3129.79 141.88C3125.57 141.88 3122.3 143.544 3120 146.872C3117.76 150.2 3116.64 155.16 3116.64 161.752C3116.64 168.28 3117.66 173.24 3119.71 176.632C3121.82 179.96 3124.86 181.624 3128.83 181.624C3133.63 181.624 3137.79 178.936 3141.31 173.56V148.408C3139.9 146.296 3138.21 144.696 3136.22 143.608C3134.24 142.456 3132.1 141.88 3129.79 141.88Z" fill="white"/>
<path d="M3208.57 180.472V187H3170.46V180.472H3186.68V129.688L3171.61 138.808L3168.06 133.144L3187.74 120.856H3194.84V180.472H3208.57Z" fill="white"/>
<path d="M3269.97 141.208C3269.97 148.568 3267.7 153.944 3263.16 157.336C3258.61 160.728 3252.37 162.424 3244.44 162.424H3235.89V187H3227.64V120.856H3244.44C3252.56 120.856 3258.84 122.552 3263.25 125.944C3267.73 129.336 3269.97 134.424 3269.97 141.208ZM3261.04 141.304C3261.04 136.504 3259.64 133.016 3256.82 130.84C3254.07 128.6 3250.29 127.48 3245.49 127.48H3235.89V155.8H3245.2C3250.2 155.8 3254.07 154.712 3256.82 152.536C3259.64 150.36 3261.04 146.616 3261.04 141.304Z" fill="white"/>
<path d="M3297.77 116.056H3307.95L3306.41 141.016H3299.31L3297.77 116.056Z" fill="white"/>
<path d="M3579.54 118.36L3583.96 111.448L3601.62 122.872L3599.03 127.288L3579.54 118.36Z" fill="white"/>
<path d="M3648.33 135.352C3655.31 135.352 3660.65 137.72 3664.37 142.456C3668.14 147.128 3670.03 153.528 3670.03 161.656C3670.03 169.592 3668.11 175.992 3664.27 180.856C3660.49 185.656 3655.15 188.056 3648.24 188.056C3641.26 188.056 3635.89 185.72 3632.11 181.048C3628.33 176.312 3626.45 169.88 3626.45 161.752C3626.45 153.752 3628.33 147.352 3632.11 142.552C3635.95 137.752 3641.36 135.352 3648.33 135.352ZM3648.33 141.976C3643.92 141.976 3640.62 143.608 3638.45 146.872C3636.27 150.136 3635.18 155.096 3635.18 161.752C3635.18 168.408 3636.24 173.368 3638.35 176.632C3640.53 179.832 3643.82 181.432 3648.24 181.432C3652.65 181.432 3655.92 179.832 3658.03 176.632C3660.21 173.368 3661.29 168.376 3661.29 161.656C3661.29 155 3660.21 150.072 3658.03 146.872C3655.92 143.608 3652.69 141.976 3648.33 141.976Z" fill="white"/>
<path d="M3726.63 180.472V187H3688.52V180.472H3704.74V129.688L3689.67 138.808L3686.12 133.144L3705.8 120.856H3712.9V180.472H3726.63Z" fill="white"/>
<path d="M330.445 295.472V302H292.333V295.472H308.557V244.688L293.485 253.808L289.933 248.144L309.613 235.856H316.717V295.472H330.445Z" fill="white"/>
<path d="M388.007 295.472V302H349.895V295.472H366.119V244.688L351.047 253.808L347.495 248.144L367.175 235.856H374.279V295.472H388.007Z" fill="white"/>
<path d="M445.57 295.472V302H407.458V295.472H423.682V244.688L408.61 253.808L405.058 248.144L424.738 235.856H431.842V295.472H445.57Z" fill="white"/>
<path d="M848.507 295.472V302H810.395V295.472H826.619V244.688L811.547 253.808L807.995 248.144L827.675 235.856H834.779V295.472H848.507Z" fill="white"/>
<path d="M906.07 295.472V302H867.958V295.472H884.182V244.688L869.11 253.808L865.558 248.144L885.238 235.856H892.342V295.472H906.07Z" fill="white"/>
<path d="M963.632 295.472V302H925.52V295.472H941.744V244.688L926.672 253.808L923.12 248.144L942.8 235.856H949.904V295.472H963.632Z" fill="white"/>
<path d="M1366.57 295.472V302H1328.46V295.472H1344.68V244.688L1329.61 253.808L1326.06 248.144L1345.74 235.856H1352.84V295.472H1366.57Z" fill="white"/>
<path d="M1424.13 295.472V302H1386.02V295.472H1402.24V244.688L1387.17 253.808L1383.62 248.144L1403.3 235.856H1410.4V295.472H1424.13Z" fill="white"/>
<path d="M1481.69 295.472V302H1443.58V295.472H1459.81V244.688L1444.73 253.808L1441.18 248.144L1460.86 235.856H1467.97V295.472H1481.69Z" fill="white"/>
<path d="M1654.38 295.472V302H1616.27V295.472H1632.49V244.688L1617.42 253.808L1613.87 248.144L1633.55 235.856H1640.65V295.472H1654.38Z" fill="white"/>
<path d="M1711.94 295.472V302H1673.83V295.472H1690.06V244.688L1674.98 253.808L1671.43 248.144L1691.11 235.856H1698.22V295.472H1711.94Z" fill="white"/>
<path d="M1769.51 295.472V302H1731.4V295.472H1747.62V244.688L1732.55 253.808L1729 248.144L1748.68 235.856H1755.78V295.472H1769.51Z" fill="white"/>
<path d="M1970.38 294.608C1970.38 292.24 1971.18 290.256 1972.78 288.656C1974.45 286.992 1976.46 286.16 1978.83 286.16C1981.26 286.16 1983.28 286.992 1984.88 288.656C1986.48 290.256 1987.28 292.24 1987.28 294.608C1987.28 297.04 1986.48 299.056 1984.88 300.656C1983.28 302.256 1981.26 303.056 1978.83 303.056C1976.46 303.056 1974.45 302.256 1972.78 300.656C1971.18 298.992 1970.38 296.976 1970.38 294.608Z" fill="white"/>
<path d="M2055.69 231.056V302H2048.58L2047.82 295.376C2045.96 297.936 2043.82 299.856 2041.38 301.136C2038.95 302.416 2036.33 303.056 2033.51 303.056C2027.11 303.056 2022.28 300.72 2019.02 296.048C2015.82 291.376 2014.22 284.944 2014.22 276.752C2014.22 271.696 2015.02 267.184 2016.62 263.216C2018.22 259.184 2020.49 256.048 2023.43 253.808C2026.44 251.504 2029.96 250.352 2033.99 250.352C2039.56 250.352 2044.1 252.368 2047.62 256.4V230.096L2055.69 231.056ZM2036.1 256.88C2031.88 256.88 2028.62 258.544 2026.31 261.872C2024.07 265.2 2022.95 270.16 2022.95 276.752C2022.95 283.28 2023.98 288.24 2026.02 291.632C2028.14 294.96 2031.18 296.624 2035.14 296.624C2039.94 296.624 2044.1 293.936 2047.62 288.56V263.408C2046.22 261.296 2044.52 259.696 2042.54 258.608C2040.55 257.456 2038.41 256.88 2036.1 256.88Z" fill="white"/>
<path d="M2114.88 295.472V302H2076.77V295.472H2092.99V244.688L2077.92 253.808L2074.37 248.144L2094.05 235.856H2101.15V295.472H2114.88Z" fill="white"/>
<path d="M2172.44 295.472V302H2134.33V295.472H2150.56V244.688L2135.48 253.808L2131.93 248.144L2151.61 235.856H2158.72V295.472H2172.44Z" fill="white"/>
<path d="M2204.09 231.056H2214.26L2212.73 256.016H2205.62L2204.09 231.056Z" fill="white"/>
<path d="M2402.69 295.472V302H2364.58V295.472H2380.81V244.688L2365.73 253.808L2362.18 248.144L2381.86 235.856H2388.97V295.472H2402.69Z" fill="white"/>
<path d="M2460.26 295.472V302H2422.15V295.472H2438.37V244.688L2423.3 253.808L2419.75 248.144L2439.43 235.856H2446.53V295.472H2460.26Z" fill="white"/>
<path d="M2517.82 295.472V302H2479.71V295.472H2495.93V244.688L2480.86 253.808L2477.31 248.144L2496.99 235.856H2504.09V295.472H2517.82Z" fill="white"/>
<path d="M2978.32 295.472V302H2940.21V295.472H2956.43V244.688L2941.36 253.808L2937.81 248.144L2957.49 235.856H2964.59V295.472H2978.32Z" fill="white"/>
<path d="M3134.4 302H3125.95V276.56L3103.58 235.856H3112.8L3130.37 269.072L3148.13 235.856H3156.77L3134.4 276.464V302Z" fill="white"/>
<path d="M3208.57 295.472V302H3170.46V295.472H3186.68V244.688L3171.61 253.808L3168.06 248.144L3187.74 235.856H3194.84V295.472H3208.57Z" fill="white"/>
<path d="M3266.13 295.472V302H3228.02V295.472H3244.24V244.688L3229.17 253.808L3225.62 248.144L3245.3 235.856H3252.4V295.472H3266.13Z" fill="white"/>
<path d="M3279.44 302L3298.06 275.312L3281.65 251.408H3291.25L3302.96 270.224L3314.77 251.408H3324.08L3307.66 274.928L3326.29 302H3316.49L3302.57 280.304L3288.65 302H3279.44Z" fill="white"/>
<path d="M3360.43 234.8C3367.47 234.8 3372.81 237.744 3376.46 243.632C3380.17 249.456 3382.03 257.872 3382.03 268.88C3382.03 279.952 3380.17 288.432 3376.46 294.32C3372.81 300.144 3367.47 303.056 3360.43 303.056C3353.39 303.056 3348.01 300.144 3344.3 294.32C3340.65 288.432 3338.83 279.952 3338.83 268.88C3338.83 257.872 3340.65 249.456 3344.3 243.632C3348.01 237.744 3353.39 234.8 3360.43 234.8ZM3360.43 241.328C3351.66 241.328 3347.27 250.512 3347.27 268.88C3347.27 287.312 3351.66 296.528 3360.43 296.528C3369.19 296.528 3373.58 287.312 3373.58 268.88C3373.58 250.512 3369.19 241.328 3360.43 241.328ZM3360.43 262.64C3362.22 262.64 3363.72 263.248 3364.94 264.464C3366.15 265.68 3366.76 267.152 3366.76 268.88C3366.76 270.672 3366.15 272.176 3364.94 273.392C3363.72 274.608 3362.22 275.216 3360.43 275.216C3358.63 275.216 3357.13 274.608 3355.91 273.392C3354.76 272.176 3354.19 270.672 3354.19 268.88C3354.19 267.152 3354.76 265.68 3355.91 264.464C3357.13 263.248 3358.63 262.64 3360.43 262.64Z" fill="white"/>
<path d="M3409.44 294.608C3409.44 292.24 3410.24 290.256 3411.84 288.656C3413.51 286.992 3415.52 286.16 3417.89 286.16C3420.32 286.16 3422.34 286.992 3423.94 288.656C3425.54 290.256 3426.34 292.24 3426.34 294.608C3426.34 297.04 3425.54 299.056 3423.94 300.656C3422.34 302.256 3420.32 303.056 3417.89 303.056C3415.52 303.056 3413.51 302.256 3411.84 300.656C3410.24 298.992 3409.44 296.976 3409.44 294.608Z" fill="white"/>
<path d="M330.445 410.472V417H292.333V410.472H308.557V359.688L293.485 368.808L289.933 363.144L309.613 350.856H316.717V410.472H330.445Z" fill="white"/>
<path d="M367.175 349.8C374.215 349.8 379.559 352.744 383.207 358.632C386.919 364.456 388.775 372.872 388.775 383.88C388.775 394.952 386.919 403.432 383.207 409.32C379.559 415.144 374.215 418.056 367.175 418.056C360.135 418.056 354.759 415.144 351.047 409.32C347.399 403.432 345.575 394.952 345.575 383.88C345.575 372.872 347.399 364.456 351.047 358.632C354.759 352.744 360.135 349.8 367.175 349.8ZM367.175 356.328C358.407 356.328 354.023 365.512 354.023 383.88C354.023 402.312 358.407 411.528 367.175 411.528C375.943 411.528 380.327 402.312 380.327 383.88C380.327 365.512 375.943 356.328 367.175 356.328ZM367.175 377.64C368.967 377.64 370.471 378.248 371.687 379.464C372.903 380.68 373.511 382.152 373.511 383.88C373.511 385.672 372.903 387.176 371.687 388.392C370.471 389.608 368.967 390.216 367.175 390.216C365.383 390.216 363.879 389.608 362.663 388.392C361.511 387.176 360.935 385.672 360.935 383.88C360.935 382.152 361.511 380.68 362.663 379.464C363.879 378.248 365.383 377.64 367.175 377.64Z" fill="white"/>
<path d="M445.57 410.472V417H407.458V410.472H423.682V359.688L408.61 368.808L405.058 363.144L424.738 350.856H431.842V410.472H445.57Z" fill="white"/>
<path d="M848.507 410.472V417H810.395V410.472H826.619V359.688L811.547 368.808L807.995 363.144L827.675 350.856H834.779V410.472H848.507Z" fill="white"/>
<path d="M906.07 410.472V417H867.958V410.472H884.182V359.688L869.11 368.808L865.558 363.144L885.238 350.856H892.342V410.472H906.07Z" fill="white"/>
<path d="M963.632 410.472V417H925.52V410.472H941.744V359.688L926.672 368.808L923.12 363.144L942.8 350.856H949.904V410.472H963.632Z" fill="white"/>
<path d="M1366.57 410.472V417H1328.46V410.472H1344.68V359.688L1329.61 368.808L1326.06 363.144L1345.74 350.856H1352.84V410.472H1366.57Z" fill="white"/>
<path d="M1424.13 410.472V417H1386.02V410.472H1402.24V359.688L1387.17 368.808L1383.62 363.144L1403.3 350.856H1410.4V410.472H1424.13Z" fill="white"/>
<path d="M1481.69 410.472V417H1443.58V410.472H1459.81V359.688L1444.73 368.808L1441.18 363.144L1460.86 350.856H1467.97V410.472H1481.69Z" fill="white"/>
<path d="M1654.38 410.472V417H1616.27V410.472H1632.49V359.688L1617.42 368.808L1613.87 363.144L1633.55 350.856H1640.65V410.472H1654.38Z" fill="white"/>
<path d="M1711.94 410.472V417H1673.83V410.472H1690.06V359.688L1674.98 368.808L1671.43 363.144L1691.11 350.856H1698.22V410.472H1711.94Z" fill="white"/>
<path d="M1769.51 410.472V417H1731.4V410.472H1747.62V359.688L1732.55 368.808L1729 363.144L1748.68 350.856H1755.78V410.472H1769.51Z" fill="white"/>
<path d="M1806.24 349.8C1813.28 349.8 1818.62 352.744 1822.27 358.632C1825.98 364.456 1827.84 372.872 1827.84 383.88C1827.84 394.952 1825.98 403.432 1822.27 409.32C1818.62 415.144 1813.28 418.056 1806.24 418.056C1799.2 418.056 1793.82 415.144 1790.11 409.32C1786.46 403.432 1784.64 394.952 1784.64 383.88C1784.64 372.872 1786.46 364.456 1790.11 358.632C1793.82 352.744 1799.2 349.8 1806.24 349.8ZM1806.24 356.328C1797.47 356.328 1793.09 365.512 1793.09 383.88C1793.09 402.312 1797.47 411.528 1806.24 411.528C1815.01 411.528 1819.39 402.312 1819.39 383.88C1819.39 365.512 1815.01 356.328 1806.24 356.328ZM1806.24 377.64C1808.03 377.64 1809.53 378.248 1810.75 379.464C1811.97 380.68 1812.57 382.152 1812.57 383.88C1812.57 385.672 1811.97 387.176 1810.75 388.392C1809.53 389.608 1808.03 390.216 1806.24 390.216C1804.45 390.216 1802.94 389.608 1801.73 388.392C1800.57 387.176 1800 385.672 1800 383.88C1800 382.152 1800.57 380.68 1801.73 379.464C1802.94 378.248 1804.45 377.64 1806.24 377.64Z" fill="white"/>
<path d="M1863.8 349.8C1870.84 349.8 1876.18 352.744 1879.83 358.632C1883.54 364.456 1885.4 372.872 1885.4 383.88C1885.4 394.952 1883.54 403.432 1879.83 409.32C1876.18 415.144 1870.84 418.056 1863.8 418.056C1856.76 418.056 1851.38 415.144 1847.67 409.32C1844.02 403.432 1842.2 394.952 1842.2 383.88C1842.2 372.872 1844.02 364.456 1847.67 358.632C1851.38 352.744 1856.76 349.8 1863.8 349.8ZM1863.8 356.328C1855.03 356.328 1850.65 365.512 1850.65 383.88C1850.65 402.312 1855.03 411.528 1863.8 411.528C1872.57 411.528 1876.95 402.312 1876.95 383.88C1876.95 365.512 1872.57 356.328 1863.8 356.328ZM1863.8 377.64C1865.59 377.64 1867.1 378.248 1868.31 379.464C1869.53 380.68 1870.14 382.152 1870.14 383.88C1870.14 385.672 1869.53 387.176 1868.31 388.392C1867.1 389.608 1865.59 390.216 1863.8 390.216C1862.01 390.216 1860.5 389.608 1859.29 388.392C1858.14 387.176 1857.56 385.672 1857.56 383.88C1857.56 382.152 1858.14 380.68 1859.29 379.464C1860.5 378.248 1862.01 377.64 1863.8 377.64Z" fill="white"/>
<path d="M1921.36 349.8C1928.4 349.8 1933.75 352.744 1937.39 358.632C1941.11 364.456 1942.96 372.872 1942.96 383.88C1942.96 394.952 1941.11 403.432 1937.39 409.32C1933.75 415.144 1928.4 418.056 1921.36 418.056C1914.32 418.056 1908.95 415.144 1905.23 409.32C1901.59 403.432 1899.76 394.952 1899.76 383.88C1899.76 372.872 1901.59 364.456 1905.23 358.632C1908.95 352.744 1914.32 349.8 1921.36 349.8ZM1921.36 356.328C1912.59 356.328 1908.21 365.512 1908.21 383.88C1908.21 402.312 1912.59 411.528 1921.36 411.528C1930.13 411.528 1934.51 402.312 1934.51 383.88C1934.51 365.512 1930.13 356.328 1921.36 356.328ZM1921.36 377.64C1923.15 377.64 1924.66 378.248 1925.87 379.464C1927.09 380.68 1927.7 382.152 1927.7 383.88C1927.7 385.672 1927.09 387.176 1925.87 388.392C1924.66 389.608 1923.15 390.216 1921.36 390.216C1919.57 390.216 1918.07 389.608 1916.85 388.392C1915.7 387.176 1915.12 385.672 1915.12 383.88C1915.12 382.152 1915.7 380.68 1916.85 379.464C1918.07 378.248 1919.57 377.64 1921.36 377.64Z" fill="white"/>
<path d="M1999.76 410.472V417H1961.65V410.472H1977.87V359.688L1962.8 368.808L1959.25 363.144L1978.93 350.856H1986.03V410.472H1999.76Z" fill="white"/>
<path d="M2057.32 410.472V417H2019.21V410.472H2035.43V359.688L2020.36 368.808L2016.81 363.144L2036.49 350.856H2043.59V410.472H2057.32Z" fill="white"/>
<path d="M2118.72 371.208C2118.72 378.568 2116.45 383.944 2111.91 387.336C2107.36 390.728 2101.12 392.424 2093.19 392.424H2084.64V417H2076.39V350.856H2093.19C2101.31 350.856 2107.59 352.552 2112 355.944C2116.48 359.336 2118.72 364.424 2118.72 371.208ZM2109.79 371.304C2109.79 366.504 2108.39 363.016 2105.57 360.84C2102.82 358.6 2099.04 357.48 2094.24 357.48H2084.64V385.8H2093.95C2098.95 385.8 2102.82 384.712 2105.57 382.536C2108.39 380.36 2109.79 376.616 2109.79 371.304Z" fill="white"/>
<path d="M2146.52 346.056H2156.7L2155.16 371.016H2148.06L2146.52 346.056Z" fill="white"/>
<path d="M2402.69 410.472V417H2364.58V410.472H2380.81V359.688L2365.73 368.808L2362.18 363.144L2381.86 350.856H2388.97V410.472H2402.69Z" fill="white"/>
<path d="M2460.26 410.472V417H2422.15V410.472H2438.37V359.688L2423.3 368.808L2419.75 363.144L2439.43 350.856H2446.53V410.472H2460.26Z" fill="white"/>
<path d="M2517.82 410.472V417H2479.71V410.472H2495.93V359.688L2480.86 368.808L2477.31 363.144L2496.99 350.856H2504.09V410.472H2517.82Z" fill="white"/>
<path d="M2978.32 410.472V417H2940.21V410.472H2956.43V359.688L2941.36 368.808L2937.81 363.144L2957.49 350.856H2964.59V410.472H2978.32Z" fill="white"/>
<path d="M3176.6 348.36L3181.02 341.448L3198.68 352.872L3196.09 357.288L3176.6 348.36Z" fill="white"/>
<path d="M3245.4 365.352C3252.37 365.352 3257.72 367.72 3261.43 372.456C3265.2 377.128 3267.09 383.528 3267.09 391.656C3267.09 399.592 3265.17 405.992 3261.33 410.856C3257.56 415.656 3252.21 418.056 3245.3 418.056C3238.32 418.056 3232.95 415.72 3229.17 411.048C3225.4 406.312 3223.51 399.88 3223.51 391.752C3223.51 383.752 3225.4 377.352 3229.17 372.552C3233.01 367.752 3238.42 365.352 3245.4 365.352ZM3245.4 371.976C3240.98 371.976 3237.68 373.608 3235.51 376.872C3233.33 380.136 3232.24 385.096 3232.24 391.752C3232.24 398.408 3233.3 403.368 3235.41 406.632C3237.59 409.832 3240.88 411.432 3245.3 411.432C3249.72 411.432 3252.98 409.832 3255.09 406.632C3257.27 403.368 3258.36 398.376 3258.36 391.656C3258.36 385 3257.27 380.072 3255.09 376.872C3252.98 373.608 3249.75 371.976 3245.4 371.976Z" fill="white"/>
<path d="M3307.09 417H3298.64V391.56L3276.27 350.856H3285.49L3303.05 384.072L3320.81 350.856H3329.45L3307.09 391.464V417Z" fill="white"/>
<path d="M3381.26 410.472V417H3343.15V410.472H3359.37V359.688L3344.3 368.808L3340.75 363.144L3360.43 350.856H3367.53V410.472H3381.26Z" fill="white"/>
<path d="M3438.82 410.472V417H3400.71V410.472H3416.93V359.688L3401.86 368.808L3398.31 363.144L3417.99 350.856H3425.09V410.472H3438.82Z" fill="white"/>
<path d="M3496.38 410.472V417H3458.27V410.472H3474.49V359.688L3459.42 368.808L3455.87 363.144L3475.55 350.856H3482.65V410.472H3496.38Z" fill="white"/>
<path d="M3553.94 410.472V417H3515.83V410.472H3532.06V359.688L3516.98 368.808L3513.43 363.144L3533.11 350.856H3540.22V410.472H3553.94Z" fill="white"/>
<path d="M3590.68 349.8C3597.72 349.8 3603.06 352.744 3606.71 358.632C3610.42 364.456 3612.28 372.872 3612.28 383.88C3612.28 394.952 3610.42 403.432 3606.71 409.32C3603.06 415.144 3597.72 418.056 3590.68 418.056C3583.64 418.056 3578.26 415.144 3574.55 409.32C3570.9 403.432 3569.08 394.952 3569.08 383.88C3569.08 372.872 3570.9 364.456 3574.55 358.632C3578.26 352.744 3583.64 349.8 3590.68 349.8ZM3590.68 356.328C3581.91 356.328 3577.52 365.512 3577.52 383.88C3577.52 402.312 3581.91 411.528 3590.68 411.528C3599.44 411.528 3603.83 402.312 3603.83 383.88C3603.83 365.512 3599.44 356.328 3590.68 356.328ZM3590.68 377.64C3592.47 377.64 3593.97 378.248 3595.19 379.464C3596.4 380.68 3597.01 382.152 3597.01 383.88C3597.01 385.672 3596.4 387.176 3595.19 388.392C3593.97 389.608 3592.47 390.216 3590.68 390.216C3588.88 390.216 3587.38 389.608 3586.16 388.392C3585.01 387.176 3584.44 385.672 3584.44 383.88C3584.44 382.152 3585.01 380.68 3586.16 379.464C3587.38 378.248 3588.88 377.64 3590.68 377.64Z" fill="white"/>
<path d="M3639.69 409.608C3639.69 407.24 3640.49 405.256 3642.09 403.656C3643.76 401.992 3645.77 401.16 3648.14 401.16C3650.57 401.16 3652.59 401.992 3654.19 403.656C3655.79 405.256 3656.59 407.24 3656.59 409.608C3656.59 412.04 3655.79 414.056 3654.19 415.656C3652.59 417.256 3650.57 418.056 3648.14 418.056C3645.77 418.056 3643.76 417.256 3642.09 415.656C3640.49 413.992 3639.69 411.976 3639.69 409.608Z" fill="white"/>
<path d="M330.445 525.472V532H292.333V525.472H308.557V474.688L293.485 483.808L289.933 478.144L309.613 465.856H316.717V525.472H330.445Z" fill="white"/>
<path d="M388.007 525.472V532H349.895V525.472H366.119V474.688L351.047 483.808L347.495 478.144L367.175 465.856H374.279V525.472H388.007Z" fill="white"/>
<path d="M424.738 464.8C431.778 464.8 437.122 467.744 440.77 473.632C444.482 479.456 446.338 487.872 446.338 498.88C446.338 509.952 444.482 518.432 440.77 524.32C437.122 530.144 431.778 533.056 424.738 533.056C417.698 533.056 412.322 530.144 408.61 524.32C404.962 518.432 403.138 509.952 403.138 498.88C403.138 487.872 404.962 479.456 408.61 473.632C412.322 467.744 417.698 464.8 424.738 464.8ZM424.738 471.328C415.97 471.328 411.586 480.512 411.586 498.88C411.586 517.312 415.97 526.528 424.738 526.528C433.506 526.528 437.89 517.312 437.89 498.88C437.89 480.512 433.506 471.328 424.738 471.328ZM424.738 492.64C426.53 492.64 428.034 493.248 429.25 494.464C430.466 495.68 431.074 497.152 431.074 498.88C431.074 500.672 430.466 502.176 429.25 503.392C428.034 504.608 426.53 505.216 424.738 505.216C422.946 505.216 421.442 504.608 420.226 503.392C419.074 502.176 418.498 500.672 418.498 498.88C418.498 497.152 419.074 495.68 420.226 494.464C421.442 493.248 422.946 492.64 424.738 492.64Z" fill="white"/>
<path d="M848.507 525.472V532H810.395V525.472H826.619V474.688L811.547 483.808L807.995 478.144L827.675 465.856H834.779V525.472H848.507Z" fill="white"/>
<path d="M906.07 525.472V532H867.958V525.472H884.182V474.688L869.11 483.808L865.558 478.144L885.238 465.856H892.342V525.472H906.07Z" fill="white"/>
<path d="M963.632 525.472V532H925.52V525.472H941.744V474.688L926.672 483.808L923.12 478.144L942.8 465.856H949.904V525.472H963.632Z" fill="white"/>
<path d="M1366.57 525.472V532H1328.46V525.472H1344.68V474.688L1329.61 483.808L1326.06 478.144L1345.74 465.856H1352.84V525.472H1366.57Z" fill="white"/>
<path d="M1403.3 464.8C1410.34 464.8 1415.68 467.744 1419.33 473.632C1423.04 479.456 1424.9 487.872 1424.9 498.88C1424.9 509.952 1423.04 518.432 1419.33 524.32C1415.68 530.144 1410.34 533.056 1403.3 533.056C1396.26 533.056 1390.88 530.144 1387.17 524.32C1383.52 518.432 1381.7 509.952 1381.7 498.88C1381.7 487.872 1383.52 479.456 1387.17 473.632C1390.88 467.744 1396.26 464.8 1403.3 464.8ZM1403.3 471.328C1394.53 471.328 1390.15 480.512 1390.15 498.88C1390.15 517.312 1394.53 526.528 1403.3 526.528C1412.07 526.528 1416.45 517.312 1416.45 498.88C1416.45 480.512 1412.07 471.328 1403.3 471.328ZM1403.3 492.64C1405.09 492.64 1406.6 493.248 1407.81 494.464C1409.03 495.68 1409.64 497.152 1409.64 498.88C1409.64 500.672 1409.03 502.176 1407.81 503.392C1406.6 504.608 1405.09 505.216 1403.3 505.216C1401.51 505.216 1400 504.608 1398.79 503.392C1397.64 502.176 1397.06 500.672 1397.06 498.88C1397.06 497.152 1397.64 495.68 1398.79 494.464C1400 493.248 1401.51 492.64 1403.3 492.64Z" fill="white"/>
<path d="M1481.69 525.472V532H1443.58V525.472H1459.81V474.688L1444.73 483.808L1441.18 478.144L1460.86 465.856H1467.97V525.472H1481.69Z" fill="white"/>
<path d="M1654.38 525.472V532H1616.27V525.472H1632.49V474.688L1617.42 483.808L1613.87 478.144L1633.55 465.856H1640.65V525.472H1654.38Z" fill="white"/>
<path d="M1711.94 525.472V532H1673.83V525.472H1690.06V474.688L1674.98 483.808L1671.43 478.144L1691.11 465.856H1698.22V525.472H1711.94Z" fill="white"/>
<path d="M1769.51 525.472V532H1731.4V525.472H1747.62V474.688L1732.55 483.808L1729 478.144L1748.68 465.856H1755.78V525.472H1769.51Z" fill="white"/>
<path d="M1795.1 463.36L1799.52 456.448L1817.18 467.872L1814.59 472.288L1795.1 463.36Z" fill="white"/>
<path d="M1884.63 525.472V532H1846.52V525.472H1862.74V474.688L1847.67 483.808L1844.12 478.144L1863.8 465.856H1870.9V525.472H1884.63Z" fill="white"/>
<path d="M1942.19 525.472V532H1904.08V525.472H1920.31V474.688L1905.23 483.808L1901.68 478.144L1921.36 465.856H1928.47V525.472H1942.19Z" fill="white"/>
<path d="M1955.5 532L1974.13 505.312L1957.71 481.408H1967.31L1979.02 500.224L1990.83 481.408H2000.14L1983.73 504.928L2002.35 532H1992.56L1978.64 510.304L1964.72 532H1955.5Z" fill="white"/>
<path d="M2027.94 524.608C2027.94 522.24 2028.74 520.256 2030.34 518.656C2032.01 516.992 2034.02 516.16 2036.39 516.16C2038.82 516.16 2040.84 516.992 2042.44 518.656C2044.04 520.256 2044.84 522.24 2044.84 524.608C2044.84 527.04 2044.04 529.056 2042.44 530.656C2040.84 532.256 2038.82 533.056 2036.39 533.056C2034.02 533.056 2032.01 532.256 2030.34 530.656C2028.74 528.992 2027.94 526.976 2027.94 524.608Z" fill="white"/>
<path d="M2402.69 525.472V532H2364.58V525.472H2380.81V474.688L2365.73 483.808L2362.18 478.144L2381.86 465.856H2388.97V525.472H2402.69Z" fill="white"/>
<path d="M2460.26 525.472V532H2422.15V525.472H2438.37V474.688L2423.3 483.808L2419.75 478.144L2439.43 465.856H2446.53V525.472H2460.26Z" fill="white"/>
<path d="M2517.82 525.472V532H2479.71V525.472H2495.93V474.688L2480.86 483.808L2477.31 478.144L2496.99 465.856H2504.09V525.472H2517.82Z" fill="white"/>
<path d="M2978.32 525.472V532H2940.21V525.472H2956.43V474.688L2941.36 483.808L2937.81 478.144L2957.49 465.856H2964.59V525.472H2978.32Z" fill="white"/>
<path d="M3406.85 463.36L3411.27 456.448L3428.93 467.872L3426.34 472.288L3406.85 463.36Z" fill="white"/>
<path d="M3452.13 532L3470.75 505.312L3454.33 481.408H3463.93L3475.65 500.224L3487.45 481.408H3496.77L3480.35 504.928L3498.97 532H3489.18L3475.26 510.304L3461.34 532H3452.13Z" fill="white"/>
<path d="M3537.34 532H3528.89V506.56L3506.52 465.856H3515.74L3533.3 499.072L3551.06 465.856H3559.7L3537.34 506.464V532Z" fill="white"/>
<path d="M3611.51 525.472V532H3573.4V525.472H3589.62V474.688L3574.55 483.808L3571 478.144L3590.68 465.856H3597.78V525.472H3611.51Z" fill="white"/>
<path d="M3669.07 525.472V532H3630.96V525.472H3647.18V474.688L3632.11 483.808L3628.56 478.144L3648.24 465.856H3655.34V525.472H3669.07Z" fill="white"/>
<path d="M3682.38 532L3701 505.312L3684.58 481.408H3694.18L3705.9 500.224L3717.7 481.408H3727.02L3710.6 504.928L3729.22 532H3719.43L3705.51 510.304L3691.59 532H3682.38Z" fill="white"/>
<path d="M309.613 579.8C316.653 579.8 321.997 582.744 325.645 588.632C329.357 594.456 331.213 602.872 331.213 613.88C331.213 624.952 329.357 633.432 325.645 639.32C321.997 645.144 316.653 648.056 309.613 648.056C302.573 648.056 297.197 645.144 293.485 639.32C289.837 633.432 288.013 624.952 288.013 613.88C288.013 602.872 289.837 594.456 293.485 588.632C297.197 582.744 302.573 579.8 309.613 579.8ZM309.613 586.328C300.845 586.328 296.461 595.512 296.461 613.88C296.461 632.312 300.845 641.528 309.613 641.528C318.381 641.528 322.765 632.312 322.765 613.88C322.765 595.512 318.381 586.328 309.613 586.328ZM309.613 607.64C311.405 607.64 312.909 608.248 314.125 609.464C315.341 610.68 315.949 612.152 315.949 613.88C315.949 615.672 315.341 617.176 314.125 618.392C312.909 619.608 311.405 620.216 309.613 620.216C307.821 620.216 306.317 619.608 305.101 618.392C303.949 617.176 303.373 615.672 303.373 613.88C303.373 612.152 303.949 610.68 305.101 609.464C306.317 608.248 307.821 607.64 309.613 607.64Z" fill="white"/>
<path d="M388.007 640.472V647H349.895V640.472H366.119V589.688L351.047 598.808L347.495 593.144L367.175 580.856H374.279V640.472H388.007Z" fill="white"/>
<path d="M445.57 640.472V647H407.458V640.472H423.682V589.688L408.61 598.808L405.058 593.144L424.738 580.856H431.842V640.472H445.57Z" fill="white"/>
<path d="M816.539 578.36L820.955 571.448L838.619 582.872L836.027 587.288L816.539 578.36Z" fill="white"/>
<path d="M906.07 640.472V647H867.958V640.472H884.182V589.688L869.11 598.808L865.558 593.144L885.238 580.856H892.342V640.472H906.07Z" fill="white"/>
<path d="M963.632 640.472V647H925.52V640.472H941.744V589.688L926.672 598.808L923.12 593.144L942.8 580.856H949.904V640.472H963.632Z" fill="white"/>
<path d="M976.939 647L995.563 620.312L979.147 596.408H988.747L1000.46 615.224L1012.27 596.408H1021.58L1005.16 619.928L1023.79 647H1013.99L1000.07 625.304L986.155 647H976.939Z" fill="white"/>
<path d="M1307.38 576.056V647H1300.27L1299.5 640.376C1297.65 642.936 1295.5 644.856 1293.07 646.136C1290.64 647.416 1288.02 648.056 1285.2 648.056C1278.8 648.056 1273.97 645.72 1270.7 641.048C1267.5 636.376 1265.9 629.944 1265.9 621.752C1265.9 616.696 1266.7 612.184 1268.3 608.216C1269.9 604.184 1272.18 601.048 1275.12 598.808C1278.13 596.504 1281.65 595.352 1285.68 595.352C1291.25 595.352 1295.79 597.368 1299.31 601.4V575.096L1307.38 576.056ZM1287.79 601.88C1283.57 601.88 1280.3 603.544 1278 606.872C1275.76 610.2 1274.64 615.16 1274.64 621.752C1274.64 628.28 1275.66 633.24 1277.71 636.632C1279.82 639.96 1282.86 641.624 1286.83 641.624C1291.63 641.624 1295.79 638.936 1299.31 633.56V608.408C1297.9 606.296 1296.21 604.696 1294.22 603.608C1292.24 602.456 1290.1 601.88 1287.79 601.88Z" fill="white"/>
<path d="M1366.57 640.472V647H1328.46V640.472H1344.68V589.688L1329.61 598.808L1326.06 593.144L1345.74 580.856H1352.84V640.472H1366.57Z" fill="white"/>
<path d="M1424.13 640.472V647H1386.02V640.472H1402.24V589.688L1387.17 598.808L1383.62 593.144L1403.3 580.856H1410.4V640.472H1424.13Z" fill="white"/>
<path d="M1455.77 576.056H1465.95L1464.41 601.016H1457.31L1455.77 576.056Z" fill="white"/>
<path d="M1654.38 640.472V647H1616.27V640.472H1632.49V589.688L1617.42 598.808L1613.87 593.144L1633.55 580.856H1640.65V640.472H1654.38Z" fill="white"/>
<path d="M1711.94 640.472V647H1673.83V640.472H1690.06V589.688L1674.98 598.808L1671.43 593.144L1691.11 580.856H1698.22V640.472H1711.94Z" fill="white"/>
<path d="M1769.51 640.472V647H1731.4V640.472H1747.62V589.688L1732.55 598.808L1729 593.144L1748.68 580.856H1755.78V640.472H1769.51Z" fill="white"/>
<path d="M1910.23 578.36L1914.64 571.448L1932.31 582.872L1929.71 587.288L1910.23 578.36Z" fill="white"/>
<path d="M1999.76 640.472V647H1961.65V640.472H1977.87V589.688L1962.8 598.808L1959.25 593.144L1978.93 580.856H1986.03V640.472H1999.76Z" fill="white"/>
<path d="M2057.32 640.472V647H2019.21V640.472H2035.43V589.688L2020.36 598.808L2016.81 593.144L2036.49 580.856H2043.59V640.472H2057.32Z" fill="white"/>
<path d="M2070.63 647L2089.25 620.312L2072.83 596.408H2082.43L2094.15 615.224L2105.95 596.408H2115.27L2098.85 619.928L2117.47 647H2107.68L2093.76 625.304L2079.84 647H2070.63Z" fill="white"/>
<path d="M2143.07 639.608C2143.07 637.24 2143.87 635.256 2145.47 633.656C2147.13 631.992 2149.15 631.16 2151.52 631.16C2153.95 631.16 2155.96 631.992 2157.56 633.656C2159.16 635.256 2159.96 637.24 2159.96 639.608C2159.96 642.04 2159.16 644.056 2157.56 645.656C2155.96 647.256 2153.95 648.056 2151.52 648.056C2149.15 648.056 2147.13 647.256 2145.47 645.656C2143.87 643.992 2143.07 641.976 2143.07 639.608Z" fill="white"/>
<path d="M2370.73 578.36L2375.14 571.448L2392.81 582.872L2390.21 587.288L2370.73 578.36Z" fill="white"/>
<path d="M2460.26 640.472V647H2422.15V640.472H2438.37V589.688L2423.3 598.808L2419.75 593.144L2439.43 580.856H2446.53V640.472H2460.26Z" fill="white"/>
<path d="M2517.82 640.472V647H2479.71V640.472H2495.93V589.688L2480.86 598.808L2477.31 593.144L2496.99 580.856H2504.09V640.472H2517.82Z" fill="white"/>
<path d="M2546.01 639.608C2546.01 637.24 2546.81 635.256 2548.41 633.656C2550.07 631.992 2552.09 631.16 2554.45 631.16C2556.89 631.16 2558.9 631.992 2560.5 633.656C2562.1 635.256 2562.9 637.24 2562.9 639.608C2562.9 642.04 2562.1 644.056 2560.5 645.656C2558.9 647.256 2556.89 648.056 2554.45 648.056C2552.09 648.056 2550.07 647.256 2548.41 645.656C2546.81 643.992 2546.01 641.976 2546.01 639.608Z" fill="white"/>
<path d="M2833.82 639.608C2833.82 637.24 2834.62 635.256 2836.22 633.656C2837.88 631.992 2839.9 631.16 2842.27 631.16C2844.7 631.16 2846.71 631.992 2848.31 633.656C2849.91 635.256 2850.71 637.24 2850.71 639.608C2850.71 642.04 2849.91 644.056 2848.31 645.656C2846.71 647.256 2844.7 648.056 2842.27 648.056C2839.9 648.056 2837.88 647.256 2836.22 645.656C2834.62 643.992 2833.82 641.976 2833.82 639.608Z" fill="white"/>
<path d="M2920.76 640.472V647H2882.65V640.472H2898.87V589.688L2883.8 598.808L2880.25 593.144L2899.93 580.856H2907.03V640.472H2920.76Z" fill="white"/>
<path d="M2952.4 576.056H2962.58L2961.04 601.016H2953.94L2952.4 576.056Z" fill="white"/>
<path d="M3130.18 579.8C3137.22 579.8 3142.56 582.744 3146.21 588.632C3149.92 594.456 3151.78 602.872 3151.78 613.88C3151.78 624.952 3149.92 633.432 3146.21 639.32C3142.56 645.144 3137.22 648.056 3130.18 648.056C3123.14 648.056 3117.76 645.144 3114.05 639.32C3110.4 633.432 3108.58 624.952 3108.58 613.88C3108.58 602.872 3110.4 594.456 3114.05 588.632C3117.76 582.744 3123.14 579.8 3130.18 579.8ZM3130.18 586.328C3121.41 586.328 3117.02 595.512 3117.02 613.88C3117.02 632.312 3121.41 641.528 3130.18 641.528C3138.94 641.528 3143.33 632.312 3143.33 613.88C3143.33 595.512 3138.94 586.328 3130.18 586.328ZM3130.18 607.64C3131.97 607.64 3133.47 608.248 3134.69 609.464C3135.9 610.68 3136.51 612.152 3136.51 613.88C3136.51 615.672 3135.9 617.176 3134.69 618.392C3133.47 619.608 3131.97 620.216 3130.18 620.216C3128.38 620.216 3126.88 619.608 3125.66 618.392C3124.51 617.176 3123.94 615.672 3123.94 613.88C3123.94 612.152 3124.51 610.68 3125.66 609.464C3126.88 608.248 3128.38 607.64 3130.18 607.64Z" fill="white"/>
<path d="M3187.74 579.8C3194.78 579.8 3200.12 582.744 3203.77 588.632C3207.48 594.456 3209.34 602.872 3209.34 613.88C3209.34 624.952 3207.48 633.432 3203.77 639.32C3200.12 645.144 3194.78 648.056 3187.74 648.056C3180.7 648.056 3175.32 645.144 3171.61 639.32C3167.96 633.432 3166.14 624.952 3166.14 613.88C3166.14 602.872 3167.96 594.456 3171.61 588.632C3175.32 582.744 3180.7 579.8 3187.74 579.8ZM3187.74 586.328C3178.97 586.328 3174.59 595.512 3174.59 613.88C3174.59 632.312 3178.97 641.528 3187.74 641.528C3196.51 641.528 3200.89 632.312 3200.89 613.88C3200.89 595.512 3196.51 586.328 3187.74 586.328ZM3187.74 607.64C3189.53 607.64 3191.03 608.248 3192.25 609.464C3193.47 610.68 3194.07 612.152 3194.07 613.88C3194.07 615.672 3193.47 617.176 3192.25 618.392C3191.03 619.608 3189.53 620.216 3187.74 620.216C3185.95 620.216 3184.44 619.608 3183.23 618.392C3182.07 617.176 3181.5 615.672 3181.5 613.88C3181.5 612.152 3182.07 610.68 3183.23 609.464C3184.44 608.248 3185.95 607.64 3187.74 607.64Z" fill="white"/>
<path d="M3524.57 639.608C3524.57 637.24 3525.37 635.256 3526.97 633.656C3528.63 631.992 3530.65 631.16 3533.02 631.16C3535.45 631.16 3537.46 631.992 3539.06 633.656C3540.66 635.256 3541.46 637.24 3541.46 639.608C3541.46 642.04 3540.66 644.056 3539.06 645.656C3537.46 647.256 3535.45 648.056 3533.02 648.056C3530.65 648.056 3528.63 647.256 3526.97 645.656C3525.37 643.992 3524.57 641.976 3524.57 639.608Z" fill="white"/>
<path d="M3609.88 576.056V647H3602.77L3602 640.376C3600.15 642.936 3598 644.856 3595.57 646.136C3593.14 647.416 3590.52 648.056 3587.7 648.056C3581.3 648.056 3576.47 645.72 3573.2 641.048C3570 636.376 3568.4 629.944 3568.4 621.752C3568.4 616.696 3569.2 612.184 3570.8 608.216C3572.4 604.184 3574.68 601.048 3577.62 598.808C3580.63 596.504 3584.15 595.352 3588.18 595.352C3593.75 595.352 3598.29 597.368 3601.81 601.4V575.096L3609.88 576.056ZM3590.29 601.88C3586.07 601.88 3582.8 603.544 3580.5 606.872C3578.26 610.2 3577.14 615.16 3577.14 621.752C3577.14 628.28 3578.16 633.24 3580.21 636.632C3582.32 639.96 3585.36 641.624 3589.33 641.624C3594.13 641.624 3598.29 638.936 3601.81 633.56V608.408C3600.4 606.296 3598.71 604.696 3596.72 603.608C3594.74 602.456 3592.6 601.88 3590.29 601.88Z" fill="white"/>
<path d="M3669.07 640.472V647H3630.96V640.472H3647.18V589.688L3632.11 598.808L3628.56 593.144L3648.24 580.856H3655.34V640.472H3669.07Z" fill="white"/>
<path d="M3730.47 601.208C3730.47 608.568 3728.2 613.944 3723.66 617.336C3719.11 620.728 3712.87 622.424 3704.94 622.424H3696.39V647H3688.14V580.856H3704.94C3713.06 580.856 3719.34 582.552 3723.75 585.944C3728.23 589.336 3730.47 594.424 3730.47 601.208ZM3721.54 601.304C3721.54 596.504 3720.14 593.016 3717.32 590.84C3714.57 588.6 3710.79 587.48 3705.99 587.48H3696.39V615.8H3705.7C3710.7 615.8 3714.57 614.712 3717.32 612.536C3720.14 610.36 3721.54 606.616 3721.54 601.304Z" fill="white"/>
<path d="M252.05 694.8C259.09 694.8 264.434 697.744 268.082 703.632C271.794 709.456 273.65 717.872 273.65 728.88C273.65 739.952 271.794 748.432 268.082 754.32C264.434 760.144 259.09 763.056 252.05 763.056C245.01 763.056 239.634 760.144 235.922 754.32C232.274 748.432 230.45 739.952 230.45 728.88C230.45 717.872 232.274 709.456 235.922 703.632C239.634 697.744 245.01 694.8 252.05 694.8ZM252.05 701.328C243.282 701.328 238.898 710.512 238.898 728.88C238.898 747.312 243.282 756.528 252.05 756.528C260.818 756.528 265.202 747.312 265.202 728.88C265.202 710.512 260.818 701.328 252.05 701.328ZM252.05 722.64C253.842 722.64 255.346 723.248 256.562 724.464C257.778 725.68 258.386 727.152 258.386 728.88C258.386 730.672 257.778 732.176 256.562 733.392C255.346 734.608 253.842 735.216 252.05 735.216C250.258 735.216 248.754 734.608 247.538 733.392C246.386 732.176 245.81 730.672 245.81 728.88C245.81 727.152 246.386 725.68 247.538 724.464C248.754 723.248 250.258 722.64 252.05 722.64Z" fill="white"/>
<path d="M330.445 755.472V762H292.333V755.472H308.557V704.688L293.485 713.808L289.933 708.144L309.613 695.856H316.717V755.472H330.445Z" fill="white"/>
<path d="M388.007 755.472V762H349.895V755.472H366.119V704.688L351.047 713.808L347.495 708.144L367.175 695.856H374.279V755.472H388.007Z" fill="white"/>
<path d="M445.57 755.472V762H407.458V755.472H423.682V704.688L408.61 713.808L405.058 708.144L424.738 695.856H431.842V755.472H445.57Z" fill="white"/>
<path d="M482.3 694.8C489.34 694.8 494.684 697.744 498.332 703.632C502.044 709.456 503.9 717.872 503.9 728.88C503.9 739.952 502.044 748.432 498.332 754.32C494.684 760.144 489.34 763.056 482.3 763.056C475.26 763.056 469.884 760.144 466.172 754.32C462.524 748.432 460.7 739.952 460.7 728.88C460.7 717.872 462.524 709.456 466.172 703.632C469.884 697.744 475.26 694.8 482.3 694.8ZM482.3 701.328C473.532 701.328 469.148 710.512 469.148 728.88C469.148 747.312 473.532 756.528 482.3 756.528C491.068 756.528 495.452 747.312 495.452 728.88C495.452 710.512 491.068 701.328 482.3 701.328ZM482.3 722.64C484.092 722.64 485.596 723.248 486.812 724.464C488.028 725.68 488.636 727.152 488.636 728.88C488.636 730.672 488.028 732.176 486.812 733.392C485.596 734.608 484.092 735.216 482.3 735.216C480.508 735.216 479.004 734.608 477.788 733.392C476.636 732.176 476.06 730.672 476.06 728.88C476.06 727.152 476.636 725.68 477.788 724.464C479.004 723.248 480.508 722.64 482.3 722.64Z" fill="white"/>
<path d="M874.102 693.36L878.518 686.448L896.182 697.872L893.59 702.288L874.102 693.36Z" fill="white"/>
<path d="M947.024 762H938.576V736.56L916.208 695.856H925.424L942.992 729.072L960.752 695.856H969.392L947.024 736.464V762Z" fill="white"/>
<path d="M1021.19 755.472V762H983.083V755.472H999.307V704.688L984.235 713.808L980.683 708.144L1000.36 695.856H1007.47V755.472H1021.19Z" fill="white"/>
<path d="M1034.5 762L1053.13 735.312L1036.71 711.408H1046.31L1058.02 730.224L1069.83 711.408H1079.14L1062.73 734.928L1081.35 762H1071.56L1057.64 740.304L1043.72 762H1034.5Z" fill="white"/>
<path d="M1115.49 694.8C1122.53 694.8 1127.87 697.744 1131.52 703.632C1135.23 709.456 1137.09 717.872 1137.09 728.88C1137.09 739.952 1135.23 748.432 1131.52 754.32C1127.87 760.144 1122.53 763.056 1115.49 763.056C1108.45 763.056 1103.07 760.144 1099.36 754.32C1095.71 748.432 1093.89 739.952 1093.89 728.88C1093.89 717.872 1095.71 709.456 1099.36 703.632C1103.07 697.744 1108.45 694.8 1115.49 694.8ZM1115.49 701.328C1106.72 701.328 1102.34 710.512 1102.34 728.88C1102.34 747.312 1106.72 756.528 1115.49 756.528C1124.26 756.528 1128.64 747.312 1128.64 728.88C1128.64 710.512 1124.26 701.328 1115.49 701.328ZM1115.49 722.64C1117.28 722.64 1118.78 723.248 1120 724.464C1121.22 725.68 1121.82 727.152 1121.82 728.88C1121.82 730.672 1121.22 732.176 1120 733.392C1118.78 734.608 1117.28 735.216 1115.49 735.216C1113.7 735.216 1112.19 734.608 1110.98 733.392C1109.82 732.176 1109.25 730.672 1109.25 728.88C1109.25 727.152 1109.82 725.68 1110.98 724.464C1112.19 723.248 1113.7 722.64 1115.49 722.64Z" fill="white"/>
<path d="M1173.05 694.8C1180.09 694.8 1185.43 697.744 1189.08 703.632C1192.79 709.456 1194.65 717.872 1194.65 728.88C1194.65 739.952 1192.79 748.432 1189.08 754.32C1185.43 760.144 1180.09 763.056 1173.05 763.056C1166.01 763.056 1160.63 760.144 1156.92 754.32C1153.27 748.432 1151.45 739.952 1151.45 728.88C1151.45 717.872 1153.27 709.456 1156.92 703.632C1160.63 697.744 1166.01 694.8 1173.05 694.8ZM1173.05 701.328C1164.28 701.328 1159.9 710.512 1159.9 728.88C1159.9 747.312 1164.28 756.528 1173.05 756.528C1181.82 756.528 1186.2 747.312 1186.2 728.88C1186.2 710.512 1181.82 701.328 1173.05 701.328ZM1173.05 722.64C1174.84 722.64 1176.35 723.248 1177.56 724.464C1178.78 725.68 1179.39 727.152 1179.39 728.88C1179.39 730.672 1178.78 732.176 1177.56 733.392C1176.35 734.608 1174.84 735.216 1173.05 735.216C1171.26 735.216 1169.75 734.608 1168.54 733.392C1167.39 732.176 1166.81 730.672 1166.81 728.88C1166.81 727.152 1167.39 725.68 1168.54 724.464C1169.75 723.248 1171.26 722.64 1173.05 722.64Z" fill="white"/>
<path d="M1249.81 691.056V762H1242.71L1241.94 755.376C1240.08 757.936 1237.94 759.856 1235.51 761.136C1233.08 762.416 1230.45 763.056 1227.64 763.056C1221.24 763.056 1216.4 760.72 1213.14 756.048C1209.94 751.376 1208.34 744.944 1208.34 736.752C1208.34 731.696 1209.14 727.184 1210.74 723.216C1212.34 719.184 1214.61 716.048 1217.56 713.808C1220.56 711.504 1224.08 710.352 1228.12 710.352C1233.68 710.352 1238.23 712.368 1241.75 716.4V690.096L1249.81 691.056ZM1230.23 716.88C1226 716.88 1222.74 718.544 1220.44 721.872C1218.2 725.2 1217.08 730.16 1217.08 736.752C1217.08 743.28 1218.1 748.24 1220.15 751.632C1222.26 754.96 1225.3 756.624 1229.27 756.624C1234.07 756.624 1238.23 753.936 1241.75 748.56V723.408C1240.34 721.296 1238.64 719.696 1236.66 718.608C1234.68 717.456 1232.53 716.88 1230.23 716.88Z" fill="white"/>
<path d="M1309.01 755.472V762H1270.9V755.472H1287.12V704.688L1272.05 713.808L1268.5 708.144L1288.18 695.856H1295.28V755.472H1309.01Z" fill="white"/>
<path d="M1370.41 716.208C1370.41 723.568 1368.14 728.944 1363.59 732.336C1359.05 735.728 1352.81 737.424 1344.87 737.424H1336.33V762H1328.07V695.856H1344.87C1353 695.856 1359.27 697.552 1363.69 700.944C1368.17 704.336 1370.41 709.424 1370.41 716.208ZM1361.48 716.304C1361.48 711.504 1360.07 708.016 1357.26 705.84C1354.51 703.6 1350.73 702.48 1345.93 702.48H1336.33V730.8H1345.64C1350.63 730.8 1354.51 729.712 1357.26 727.536C1360.07 725.36 1361.48 721.616 1361.48 716.304Z" fill="white"/>
<path d="M1398.21 691.056H1408.39L1406.85 716.016H1399.75L1398.21 691.056Z" fill="white"/>
<path d="M1575.99 694.8C1583.03 694.8 1588.37 697.744 1592.02 703.632C1595.73 709.456 1597.59 717.872 1597.59 728.88C1597.59 739.952 1595.73 748.432 1592.02 754.32C1588.37 760.144 1583.03 763.056 1575.99 763.056C1568.95 763.056 1563.57 760.144 1559.86 754.32C1556.21 748.432 1554.39 739.952 1554.39 728.88C1554.39 717.872 1556.21 709.456 1559.86 703.632C1563.57 697.744 1568.95 694.8 1575.99 694.8ZM1575.99 701.328C1567.22 701.328 1562.84 710.512 1562.84 728.88C1562.84 747.312 1567.22 756.528 1575.99 756.528C1584.76 756.528 1589.14 747.312 1589.14 728.88C1589.14 710.512 1584.76 701.328 1575.99 701.328ZM1575.99 722.64C1577.78 722.64 1579.28 723.248 1580.5 724.464C1581.72 725.68 1582.32 727.152 1582.32 728.88C1582.32 730.672 1581.72 732.176 1580.5 733.392C1579.28 734.608 1577.78 735.216 1575.99 735.216C1574.2 735.216 1572.69 734.608 1571.48 733.392C1570.32 732.176 1569.75 730.672 1569.75 728.88C1569.75 727.152 1570.32 725.68 1571.48 724.464C1572.69 723.248 1574.2 722.64 1575.99 722.64Z" fill="white"/>
<path d="M1654.38 755.472V762H1616.27V755.472H1632.49V704.688L1617.42 713.808L1613.87 708.144L1633.55 695.856H1640.65V755.472H1654.38Z" fill="white"/>
<path d="M1711.94 755.472V762H1673.83V755.472H1690.06V704.688L1674.98 713.808L1671.43 708.144L1691.11 695.856H1698.22V755.472H1711.94Z" fill="white"/>
<path d="M1769.51 755.472V762H1731.4V755.472H1747.62V704.688L1732.55 713.808L1729 708.144L1748.68 695.856H1755.78V755.472H1769.51Z" fill="white"/>
<path d="M1806.24 694.8C1813.28 694.8 1818.62 697.744 1822.27 703.632C1825.98 709.456 1827.84 717.872 1827.84 728.88C1827.84 739.952 1825.98 748.432 1822.27 754.32C1818.62 760.144 1813.28 763.056 1806.24 763.056C1799.2 763.056 1793.82 760.144 1790.11 754.32C1786.46 748.432 1784.64 739.952 1784.64 728.88C1784.64 717.872 1786.46 709.456 1790.11 703.632C1793.82 697.744 1799.2 694.8 1806.24 694.8ZM1806.24 701.328C1797.47 701.328 1793.09 710.512 1793.09 728.88C1793.09 747.312 1797.47 756.528 1806.24 756.528C1815.01 756.528 1819.39 747.312 1819.39 728.88C1819.39 710.512 1815.01 701.328 1806.24 701.328ZM1806.24 722.64C1808.03 722.64 1809.53 723.248 1810.75 724.464C1811.97 725.68 1812.57 727.152 1812.57 728.88C1812.57 730.672 1811.97 732.176 1810.75 733.392C1809.53 734.608 1808.03 735.216 1806.24 735.216C1804.45 735.216 1802.94 734.608 1801.73 733.392C1800.57 732.176 1800 730.672 1800 728.88C1800 727.152 1800.57 725.68 1801.73 724.464C1802.94 723.248 1804.45 722.64 1806.24 722.64Z" fill="white"/>
<path d="M1978.93 694.8C1985.97 694.8 1991.31 697.744 1994.96 703.632C1998.67 709.456 2000.53 717.872 2000.53 728.88C2000.53 739.952 1998.67 748.432 1994.96 754.32C1991.31 760.144 1985.97 763.056 1978.93 763.056C1971.89 763.056 1966.51 760.144 1962.8 754.32C1959.15 748.432 1957.33 739.952 1957.33 728.88C1957.33 717.872 1959.15 709.456 1962.8 703.632C1966.51 697.744 1971.89 694.8 1978.93 694.8ZM1978.93 701.328C1970.16 701.328 1965.77 710.512 1965.77 728.88C1965.77 747.312 1970.16 756.528 1978.93 756.528C1987.69 756.528 1992.08 747.312 1992.08 728.88C1992.08 710.512 1987.69 701.328 1978.93 701.328ZM1978.93 722.64C1980.72 722.64 1982.22 723.248 1983.44 724.464C1984.65 725.68 1985.26 727.152 1985.26 728.88C1985.26 730.672 1984.65 732.176 1983.44 733.392C1982.22 734.608 1980.72 735.216 1978.93 735.216C1977.13 735.216 1975.63 734.608 1974.41 733.392C1973.26 732.176 1972.69 730.672 1972.69 728.88C1972.69 727.152 1973.26 725.68 1974.41 724.464C1975.63 723.248 1977.13 722.64 1978.93 722.64Z" fill="white"/>
<path d="M2057.32 755.472V762H2019.21V755.472H2035.43V704.688L2020.36 713.808L2016.81 708.144L2036.49 695.856H2043.59V755.472H2057.32Z" fill="white"/>
<path d="M2114.88 755.472V762H2076.77V755.472H2092.99V704.688L2077.92 713.808L2074.37 708.144L2094.05 695.856H2101.15V755.472H2114.88Z" fill="white"/>
<path d="M2172.44 755.472V762H2134.33V755.472H2150.56V704.688L2135.48 713.808L2131.93 708.144L2151.61 695.856H2158.72V755.472H2172.44Z" fill="white"/>
<path d="M2209.18 694.8C2216.22 694.8 2221.56 697.744 2225.21 703.632C2228.92 709.456 2230.78 717.872 2230.78 728.88C2230.78 739.952 2228.92 748.432 2225.21 754.32C2221.56 760.144 2216.22 763.056 2209.18 763.056C2202.14 763.056 2196.76 760.144 2193.05 754.32C2189.4 748.432 2187.58 739.952 2187.58 728.88C2187.58 717.872 2189.4 709.456 2193.05 703.632C2196.76 697.744 2202.14 694.8 2209.18 694.8ZM2209.18 701.328C2200.41 701.328 2196.02 710.512 2196.02 728.88C2196.02 747.312 2200.41 756.528 2209.18 756.528C2217.94 756.528 2222.33 747.312 2222.33 728.88C2222.33 710.512 2217.94 701.328 2209.18 701.328ZM2209.18 722.64C2210.97 722.64 2212.47 723.248 2213.69 724.464C2214.9 725.68 2215.51 727.152 2215.51 728.88C2215.51 730.672 2214.9 732.176 2213.69 733.392C2212.47 734.608 2210.97 735.216 2209.18 735.216C2207.38 735.216 2205.88 734.608 2204.66 733.392C2203.51 732.176 2202.94 730.672 2202.94 728.88C2202.94 727.152 2203.51 725.68 2204.66 724.464C2205.88 723.248 2207.38 722.64 2209.18 722.64Z" fill="white"/>
<path d="M2485.85 693.36L2490.27 686.448L2507.93 697.872L2505.34 702.288L2485.85 693.36Z" fill="white"/>
<path d="M2558.77 762H2550.33V736.56L2527.96 695.856H2537.17L2554.74 729.072L2572.5 695.856H2581.14L2558.77 736.464V762Z" fill="white"/>
<path d="M2588.69 762L2607.31 735.312L2590.9 711.408H2600.5L2612.21 730.224L2624.02 711.408H2633.33L2616.91 734.928L2635.54 762H2625.74L2611.82 740.304L2597.9 762H2588.69Z" fill="white"/>
<path d="M2669.68 694.8C2676.72 694.8 2682.06 697.744 2685.71 703.632C2689.42 709.456 2691.28 717.872 2691.28 728.88C2691.28 739.952 2689.42 748.432 2685.71 754.32C2682.06 760.144 2676.72 763.056 2669.68 763.056C2662.64 763.056 2657.26 760.144 2653.55 754.32C2649.9 748.432 2648.08 739.952 2648.08 728.88C2648.08 717.872 2649.9 709.456 2653.55 703.632C2657.26 697.744 2662.64 694.8 2669.68 694.8ZM2669.68 701.328C2660.91 701.328 2656.52 710.512 2656.52 728.88C2656.52 747.312 2660.91 756.528 2669.68 756.528C2678.44 756.528 2682.83 747.312 2682.83 728.88C2682.83 710.512 2678.44 701.328 2669.68 701.328ZM2669.68 722.64C2671.47 722.64 2672.97 723.248 2674.19 724.464C2675.4 725.68 2676.01 727.152 2676.01 728.88C2676.01 730.672 2675.4 732.176 2674.19 733.392C2672.97 734.608 2671.47 735.216 2669.68 735.216C2667.88 735.216 2666.38 734.608 2665.16 733.392C2664.01 732.176 2663.44 730.672 2663.44 728.88C2663.44 727.152 2664.01 725.68 2665.16 724.464C2666.38 723.248 2667.88 722.64 2669.68 722.64Z" fill="white"/>
<path d="M2746.44 691.056V762H2739.33L2738.57 755.376C2736.71 757.936 2734.57 759.856 2732.13 761.136C2729.7 762.416 2727.08 763.056 2724.26 763.056C2717.86 763.056 2713.03 760.72 2709.77 756.048C2706.57 751.376 2704.97 744.944 2704.97 736.752C2704.97 731.696 2705.77 727.184 2707.37 723.216C2708.97 719.184 2711.24 716.048 2714.18 713.808C2717.19 711.504 2720.71 710.352 2724.74 710.352C2730.31 710.352 2734.85 712.368 2738.37 716.4V690.096L2746.44 691.056ZM2726.85 716.88C2722.63 716.88 2719.37 718.544 2717.06 721.872C2714.82 725.2 2713.7 730.16 2713.7 736.752C2713.7 743.28 2714.73 748.24 2716.77 751.632C2718.89 754.96 2721.93 756.624 2725.89 756.624C2730.69 756.624 2734.85 753.936 2738.37 748.56V723.408C2736.97 721.296 2735.27 719.696 2733.29 718.608C2731.3 717.456 2729.16 716.88 2726.85 716.88Z" fill="white"/>
<path d="M2809.47 716.208C2809.47 723.568 2807.2 728.944 2802.66 732.336C2798.11 735.728 2791.87 737.424 2783.94 737.424H2775.39V762H2767.14V695.856H2783.94C2792.06 695.856 2798.34 697.552 2802.75 700.944C2807.23 704.336 2809.47 709.424 2809.47 716.208ZM2800.54 716.304C2800.54 711.504 2799.14 708.016 2796.32 705.84C2793.57 703.6 2789.79 702.48 2784.99 702.48H2775.39V730.8H2784.7C2789.7 730.8 2793.57 729.712 2796.32 727.536C2799.14 725.36 2800.54 721.616 2800.54 716.304Z" fill="white"/>
<path d="M2837.27 691.056H2847.45L2845.91 716.016H2838.81L2837.27 691.056Z" fill="white"/>
<path d="M3151.01 755.472V762H3112.9V755.472H3129.12V704.688L3114.05 713.808L3110.5 708.144L3130.18 695.856H3137.28V755.472H3151.01Z" fill="white"/>
<path d="M3187.74 694.8C3194.78 694.8 3200.12 697.744 3203.77 703.632C3207.48 709.456 3209.34 717.872 3209.34 728.88C3209.34 739.952 3207.48 748.432 3203.77 754.32C3200.12 760.144 3194.78 763.056 3187.74 763.056C3180.7 763.056 3175.32 760.144 3171.61 754.32C3167.96 748.432 3166.14 739.952 3166.14 728.88C3166.14 717.872 3167.96 709.456 3171.61 703.632C3175.32 697.744 3180.7 694.8 3187.74 694.8ZM3187.74 701.328C3178.97 701.328 3174.59 710.512 3174.59 728.88C3174.59 747.312 3178.97 756.528 3187.74 756.528C3196.51 756.528 3200.89 747.312 3200.89 728.88C3200.89 710.512 3196.51 701.328 3187.74 701.328ZM3187.74 722.64C3189.53 722.64 3191.03 723.248 3192.25 724.464C3193.47 725.68 3194.07 727.152 3194.07 728.88C3194.07 730.672 3193.47 732.176 3192.25 733.392C3191.03 734.608 3189.53 735.216 3187.74 735.216C3185.95 735.216 3184.44 734.608 3183.23 733.392C3182.07 732.176 3181.5 730.672 3181.5 728.88C3181.5 727.152 3182.07 725.68 3183.23 724.464C3184.44 723.248 3185.95 722.64 3187.74 722.64Z" fill="white"/>
<path d="M3221.88 762L3240.5 735.312L3224.08 711.408H3233.68L3245.4 730.224L3257.2 711.408H3266.52L3250.1 734.928L3268.72 762H3258.93L3245.01 740.304L3231.09 762H3221.88Z" fill="white"/>
<path d="M3323.69 755.472V762H3285.58V755.472H3301.81V704.688L3286.73 713.808L3283.18 708.144L3302.86 695.856H3309.97V755.472H3323.69Z" fill="white"/>
<path d="M3381.26 755.472V762H3343.15V755.472H3359.37V704.688L3344.3 713.808L3340.75 708.144L3360.43 695.856H3367.53V755.472H3381.26Z" fill="white"/>
<path d="M3438.82 755.472V762H3400.71V755.472H3416.93V704.688L3401.86 713.808L3398.31 708.144L3417.99 695.856H3425.09V755.472H3438.82Z" fill="white"/>
<path d="M3496.38 755.472V762H3458.27V755.472H3474.49V704.688L3459.42 713.808L3455.87 708.144L3475.55 695.856H3482.65V755.472H3496.38Z" fill="white"/>
<path d="M3553.94 755.472V762H3515.83V755.472H3532.06V704.688L3516.98 713.808L3513.43 708.144L3533.11 695.856H3540.22V755.472H3553.94Z" fill="white"/>
<path d="M3615.35 716.208C3615.35 723.568 3613.08 728.944 3608.53 732.336C3603.99 735.728 3597.75 737.424 3589.81 737.424H3581.27V762H3573.01V695.856H3589.81C3597.94 695.856 3604.21 697.552 3608.63 700.944C3613.11 704.336 3615.35 709.424 3615.35 716.208ZM3606.42 716.304C3606.42 711.504 3605.01 708.016 3602.2 705.84C3599.44 703.6 3595.67 702.48 3590.87 702.48H3581.27V730.8H3590.58C3595.57 730.8 3599.44 729.712 3602.2 727.536C3605.01 725.36 3606.42 721.616 3606.42 716.304Z" fill="white"/>
<path d="M3643.15 691.056H3653.33L3651.79 716.016H3644.69L3643.15 691.056Z" fill="white"/>
</svg>
