<svg width="321" height="101" viewBox="0 0 321 101" fill="none" xmlns="http://www.w3.org/2000/svg">
<path d="M33.6221 0.76V0H37.3341V0.76H33.6221ZM95.9815 0.76V0H99.6935V0.76H95.9815ZM158.341 0.76V0H162.053V0.76H158.341ZM191.919 0.76V0H195.631V0.76H191.919ZM283.06 0.76V0H286.772V0.76H283.06ZM28.8653 10.72L31.6333 3.92H32.4973L29.7213 10.72H28.8653ZM36.4381 10.72L33.6621 3.92H34.5261L37.2941 10.72H36.4381ZM46.0319 10.72L43.2559 3.92H44.1199L46.8879 10.72H46.0319ZM91.2246 10.72L93.9926 3.92H94.8566L92.0806 10.72H91.2246ZM98.7975 10.72L96.0215 3.92H96.8855L99.6535 10.72H98.7975ZM108.391 10.72L105.615 3.92H106.479L109.247 10.72H108.391ZM153.584 10.72L156.352 3.92H157.216L154.44 10.72H153.584ZM161.157 10.72L158.381 3.92H159.245L162.013 10.72H161.157ZM170.751 10.72L167.975 3.92H168.839L171.607 10.72H170.751ZM187.162 10.72L189.93 3.92H190.794L188.018 10.72H187.162ZM194.735 10.72L191.959 3.92H192.823L195.591 10.72H194.735ZM196.716 10.76V10H200.428V10.76H196.716ZM204.329 10.72L201.553 3.92H202.417L205.185 10.72H204.329ZM278.303 10.72L281.071 3.92H281.935L279.159 10.72H278.303ZM287.897 10.72L290.665 3.92H291.529L288.753 10.72H287.897ZM295.469 10.72L292.693 3.92H293.557L296.325 10.72H295.469ZM31.6413 20.72L28.8653 13.92H29.7293L32.4973 20.72H31.6413ZM33.6221 20.76V20H37.3341V20.76H33.6221ZM41.235 20.72L38.459 13.92H39.323L42.091 20.72H41.235ZM50.8288 20.72L48.0528 13.92H48.9168L51.6848 20.72H50.8288ZM86.4278 20.72L89.1958 13.92H90.0598L87.2838 20.72H86.4278ZM103.594 20.72L100.818 13.92H101.682L104.45 20.72H103.594ZM113.188 20.72L110.412 13.92H111.276L114.044 20.72H113.188ZM148.787 20.72L151.555 13.92H152.419L149.643 20.72H148.787ZM165.954 20.72L163.178 13.92H164.042L166.81 20.72H165.954ZM175.548 20.72L172.772 13.92H173.636L176.404 20.72H175.548ZM182.365 20.72L185.133 13.92H185.997L183.221 20.72H182.365ZM191.959 20.72L194.727 13.92H195.591L192.815 20.72H191.959ZM201.553 20.72L204.321 13.92H205.185L202.409 20.72H201.553ZM249.482 20.76V20H253.194V20.76H249.482ZM273.506 20.72L276.274 13.92H277.138L274.362 20.72H273.506ZM283.1 20.72L285.868 13.92H286.732L283.956 20.72H283.1ZM300.266 20.72L297.49 13.92H298.354L301.122 20.72H300.266ZM28.8653 30.72L31.6333 23.92H32.4973L29.7213 30.72H28.8653ZM36.4381 30.72L33.6621 23.92H34.5261L37.2941 30.72H36.4381ZM38.419 30.76V30H42.131V30.76H38.419ZM43.2159 30.76V30H46.9279V30.76H43.2159ZM55.6256 30.72L52.8496 23.92H53.7136L56.4816 30.72H55.6256ZM81.6309 30.72L84.3989 23.92H85.2629L82.4869 30.72H81.6309ZM91.2246 30.72L93.9926 23.92H94.8566L92.0806 30.72H91.2246ZM98.7975 30.72L96.0215 23.92H96.8855L99.6535 30.72H98.7975ZM108.391 30.72L105.615 23.92H106.479L109.247 30.72H108.391ZM117.985 30.72L115.209 23.92H116.073L118.841 30.72H117.985ZM143.99 30.72L146.758 23.92H147.622L144.846 30.72H143.99ZM153.584 30.72L156.352 23.92H157.216L154.44 30.72H153.584ZM161.157 30.72L158.381 23.92H159.245L162.013 30.72H161.157ZM170.751 30.72L167.975 23.92H168.839L171.607 30.72H170.751ZM180.344 30.72L177.568 23.92H178.432L181.2 30.72H180.344ZM185.141 30.72L182.365 23.92H183.229L185.997 30.72H185.141ZM194.735 30.72L191.959 23.92H192.823L195.591 30.72H194.735ZM204.329 30.72L201.553 23.92H202.417L205.185 30.72H204.329ZM206.31 30.76V30H210.022V30.76H206.31ZM211.107 30.76V30H214.819V30.76H211.107ZM244.725 30.72L247.493 23.92H248.357L245.581 30.72H244.725ZM252.298 30.72L249.522 23.92H250.386L253.154 30.72H252.298ZM254.278 30.76V30H257.99V30.76H254.278ZM261.891 30.72L259.115 23.92H259.979L262.747 30.72H261.891ZM268.709 30.72L271.477 23.92H272.341L269.565 30.72H268.709ZM278.303 30.72L281.071 23.92H281.935L279.159 30.72H278.303ZM287.897 30.72L290.665 23.92H291.529L288.753 30.72H287.897ZM295.469 30.72L292.693 23.92H293.557L296.325 30.72H295.469ZM305.063 30.72L302.287 23.92H303.151L305.919 30.72H305.063ZM307.044 30.76V30H310.756V30.76H307.044ZM311.841 30.76V30H315.553V30.76H311.841ZM24.0684 40.72L26.8364 33.92H27.7004L24.9244 40.72H24.0684ZM33.6621 40.72L36.4301 33.92H37.2941L34.5181 40.72H33.6621ZM38.419 40.76V40H42.131V40.76H38.419ZM50.8288 40.72L48.0528 33.92H48.9168L51.6848 40.72H50.8288ZM60.4225 40.72L57.6465 33.92H58.5105L61.2785 40.72H60.4225ZM76.834 40.72L79.602 33.92H80.466L77.69 40.72H76.834ZM86.4278 40.72L89.1958 33.92H90.0598L87.2838 40.72H86.4278ZM96.0215 40.72L98.7895 33.92H99.6535L96.8775 40.72H96.0215ZM103.594 40.72L100.818 33.92H101.682L104.45 40.72H103.594ZM113.188 40.72L110.412 33.92H111.276L114.044 40.72H113.188ZM122.782 40.72L120.006 33.92H120.87L123.638 40.72H122.782ZM139.193 40.72L141.961 33.92H142.825L140.049 40.72H139.193ZM148.787 40.72L151.555 33.92H152.419L149.643 40.72H148.787ZM158.381 40.72L161.149 33.92H162.013L159.237 40.72H158.381ZM165.954 40.72L163.178 33.92H164.042L166.81 40.72H165.954ZM175.548 40.72L172.772 33.92H173.636L176.404 40.72H175.548ZM177.528 40.76V40H181.24V40.76H177.528ZM185.141 40.72L182.365 33.92H183.229L185.997 40.72H185.141ZM189.938 40.72L187.162 33.92H188.026L190.794 40.72H189.938ZM199.532 40.72L196.756 33.92H197.62L200.388 40.72H199.532ZM201.513 40.76V40H205.225V40.76H201.513ZM206.31 40.76V40H210.022V40.76H206.31ZM211.107 40.76V40H214.819V40.76H211.107ZM218.719 40.72L215.943 33.92H216.807L219.575 40.72H218.719ZM239.928 40.72L242.696 33.92H243.56L240.784 40.72H239.928ZM249.522 40.72L252.29 33.92H253.154L250.378 40.72H249.522ZM259.115 40.72L261.883 33.92H262.747L259.971 40.72H259.115ZM263.912 40.72L266.68 33.92H267.544L264.768 40.72H263.912ZM273.506 40.72L276.274 33.92H277.138L274.362 40.72H273.506ZM283.1 40.72L285.868 33.92H286.732L283.956 40.72H283.1ZM290.673 40.72L287.897 33.92H288.761L291.529 40.72H290.673ZM300.266 40.72L297.49 33.92H298.354L301.122 40.72H300.266ZM302.247 40.76V40H305.959V40.76H302.247ZM307.044 40.76V40H310.756V40.76H307.044ZM311.841 40.76V40H315.553V40.76H311.841ZM319.454 40.72L316.678 33.92H317.542L320.31 40.72H319.454ZM19.2715 50.72L22.0395 43.92H22.9035L20.1275 50.72H19.2715ZM28.8653 50.72L31.6333 43.92H32.4973L29.7213 50.72H28.8653ZM38.459 50.72L41.227 43.92H42.091L39.315 50.72H38.459ZM46.0319 50.72L43.2559 43.92H44.1199L46.8879 50.72H46.0319ZM55.6256 50.72L52.8496 43.92H53.7136L56.4816 50.72H55.6256ZM65.2194 50.72L62.4434 43.92H63.3074L66.0754 50.72H65.2194ZM72.0371 50.72L74.8051 43.92H75.6691L72.8931 50.72H72.0371ZM81.6309 50.72L84.3989 43.92H85.2629L82.4869 50.72H81.6309ZM91.2246 50.72L93.9926 43.92H94.8566L92.0806 50.72H91.2246ZM108.391 50.72L105.615 43.92H106.479L109.247 50.72H108.391ZM117.985 50.72L115.209 43.92H116.073L118.841 50.72H117.985ZM119.966 50.76V50H123.678V50.76H119.966ZM127.579 50.72L124.803 43.92H125.667L128.435 50.72H127.579ZM134.397 50.72L137.165 43.92H138.029L135.253 50.72H134.397ZM143.99 50.72L146.758 43.92H147.622L144.846 50.72H143.99ZM153.584 50.72L156.352 43.92H157.216L154.44 50.72H153.584ZM158.341 50.76V50H162.053V50.76H158.341ZM163.178 50.72L165.946 43.92H166.81L164.034 50.72H163.178ZM172.772 50.72L175.54 43.92H176.404L173.628 50.72H172.772ZM182.365 50.72L185.133 43.92H185.997L183.221 50.72H182.365ZM194.735 50.72L191.959 43.92H192.823L195.591 50.72H194.735ZM196.716 50.76V50H200.428V50.76H196.716ZM201.513 50.76V50H205.225V50.76H201.513ZM215.943 50.72L218.711 43.92H219.575L216.799 50.72H215.943ZM235.131 50.72L237.899 43.92H238.763L235.987 50.72H235.131ZM244.725 50.72L247.493 43.92H248.357L245.581 50.72H244.725ZM254.318 50.72L257.086 43.92H257.95L255.174 50.72H254.318ZM266.688 50.72L263.912 43.92H264.776L267.544 50.72H266.688ZM276.282 50.72L273.506 43.92H274.37L277.138 50.72H276.282ZM285.876 50.72L283.1 43.92H283.964L286.732 50.72H285.876ZM295.469 50.72L292.693 43.92H293.557L296.325 50.72H295.469ZM297.49 50.72L300.258 43.92H301.122L298.346 50.72H297.49ZM302.247 50.76V50H305.959V50.76H302.247ZM307.044 50.76V50H310.756V50.76H307.044ZM311.841 50.76V50H315.553V50.76H311.841ZM316.678 50.72L319.446 43.92H320.31L317.534 50.72H316.678ZM14.4746 60.72L17.2426 53.92H18.1066L15.3306 60.72H14.4746ZM24.0684 60.72L26.8364 53.92H27.7004L24.9244 60.72H24.0684ZM33.6621 60.72L36.4301 53.92H37.2941L34.5181 60.72H33.6621ZM50.8288 60.72L48.0528 53.92H48.9168L51.6848 60.72H50.8288ZM52.8496 60.72L55.6176 53.92H56.4816L53.7056 60.72H52.8496ZM57.6065 60.76V60H61.3185V60.76H57.6065ZM62.4434 60.72L65.2114 53.92H66.0754L63.2994 60.72H62.4434ZM67.2403 60.72L70.0083 53.92H70.8723L68.0963 60.72H67.2403ZM76.834 60.72L79.602 53.92H80.466L77.69 60.72H76.834ZM86.4278 60.72L89.1958 53.92H90.0598L87.2838 60.72H86.4278ZM105.615 60.72L108.383 53.92H109.247L106.471 60.72H105.615ZM115.209 60.72L117.977 53.92H118.841L116.065 60.72H115.209ZM124.803 60.72L127.571 53.92H128.435L125.659 60.72H124.803ZM129.6 60.72L132.368 53.92H133.232L130.456 60.72H129.6ZM139.193 60.72L141.961 53.92H142.825L140.049 60.72H139.193ZM148.787 60.72L151.555 53.92H152.419L149.643 60.72H148.787ZM153.544 60.76V60H157.256V60.76H153.544ZM158.341 60.76V60H162.053V60.76H158.341ZM165.954 60.72L163.178 53.92H164.042L166.81 60.72H165.954ZM167.975 60.72L170.743 53.92H171.607L168.831 60.72H167.975ZM177.568 60.72L180.336 53.92H181.2L178.424 60.72H177.568ZM191.959 60.72L194.727 53.92H195.591L192.815 60.72H191.959ZM201.553 60.72L204.321 53.92H205.185L202.409 60.72H201.553ZM211.147 60.72L213.915 53.92H214.779L212.003 60.72H211.147ZM230.334 60.72L233.102 53.92H233.966L231.19 60.72H230.334ZM239.928 60.72L242.696 53.92H243.56L240.784 60.72H239.928ZM249.522 60.72L252.29 53.92H253.154L250.378 60.72H249.522ZM271.485 60.72L268.709 53.92H269.573L272.341 60.72H271.485ZM281.079 60.72L278.303 53.92H279.167L281.935 60.72H281.079ZM290.673 60.72L287.897 53.92H288.761L291.529 60.72H290.673ZM9.67775 70.72L12.4458 63.92H13.3098L10.5338 70.72H9.67775ZM19.2715 70.72L22.0395 63.92H22.9035L20.1275 70.72H19.2715ZM28.8653 70.72L31.6333 63.92H32.4973L29.7213 70.72H28.8653ZM62.4434 70.72L65.2114 63.92H66.0754L63.2994 70.72H62.4434ZM72.0371 70.72L74.8051 63.92H75.6691L72.8931 70.72H72.0371ZM81.6309 70.72L84.3989 63.92H85.2629L82.4869 70.72H81.6309ZM100.818 70.72L103.586 63.92H104.45L101.674 70.72H100.818ZM110.412 70.72L113.18 63.92H114.044L111.268 70.72H110.412ZM120.006 70.72L122.774 63.92H123.638L120.862 70.72H120.006ZM124.803 70.72L127.571 63.92H128.435L125.659 70.72H124.803ZM134.397 70.72L137.165 63.92H138.029L135.253 70.72H134.397ZM143.99 70.72L146.758 63.92H147.622L144.846 70.72H143.99ZM148.747 70.76V70H152.459V70.76H148.747ZM153.544 70.76V70H157.256V70.76H153.544ZM158.341 70.76V70H162.053V70.76H158.341ZM163.138 70.76V70H166.85V70.76H163.138ZM167.935 70.76V70H171.647V70.76H167.935ZM172.772 70.72L175.54 63.92H176.404L173.628 70.72H172.772ZM187.162 70.72L189.93 63.92H190.794L188.018 70.72H187.162ZM196.756 70.72L199.524 63.92H200.388L197.612 70.72H196.756ZM206.35 70.72L209.118 63.92H209.982L207.206 70.72H206.35ZM225.537 70.72L228.305 63.92H229.169L226.393 70.72H225.537ZM235.131 70.72L237.899 63.92H238.763L235.987 70.72H235.131ZM244.725 70.72L247.493 63.92H248.357L245.581 70.72H244.725ZM249.482 70.76V70H253.194V70.76H249.482ZM276.282 70.72L273.506 63.92H274.37L277.138 70.72H276.282ZM285.876 70.72L283.1 63.92H283.964L286.732 70.72H285.876ZM295.469 70.72L292.693 63.92H293.557L296.325 70.72H295.469ZM4.88088 80.72L7.64888 73.92H8.51288L5.73688 80.72H4.88088ZM14.4746 80.72L17.2426 73.92H18.1066L15.3306 80.72H14.4746ZM24.0684 80.72L26.8364 73.92H27.7004L24.9244 80.72H24.0684ZM57.6465 80.72L60.4145 73.92H61.2785L58.5025 80.72H57.6465ZM67.2403 80.72L70.0083 73.92H70.8723L68.0963 80.72H67.2403ZM76.834 80.72L79.602 73.92H80.466L77.69 80.72H76.834ZM81.5909 80.76V80H85.3029V80.76H81.5909ZM86.3878 80.76V80H90.0998V80.76H86.3878ZM91.1846 80.76V80H94.8966V80.76H91.1846ZM96.0215 80.72L98.7895 73.92H99.6535L96.8775 80.72H96.0215ZM105.615 80.72L108.383 73.92H109.247L106.471 80.72H105.615ZM115.209 80.72L117.977 73.92H118.841L116.065 80.72H115.209ZM120.006 80.72L122.774 73.92H123.638L120.862 80.72H120.006ZM129.6 80.72L132.368 73.92H133.232L130.456 80.72H129.6ZM139.193 80.72L141.961 73.92H142.825L140.049 80.72H139.193ZM146.766 80.72L143.99 73.92H144.854L147.622 80.72H146.766ZM156.36 80.72L153.584 73.92H154.448L157.216 80.72H156.36ZM165.954 80.72L163.178 73.92H164.042L166.81 80.72H165.954ZM182.365 80.72L185.133 73.92H185.997L183.221 80.72H182.365ZM191.959 80.72L194.727 73.92H195.591L192.815 80.72H191.959ZM201.553 80.72L204.321 73.92H205.185L202.409 80.72H201.553ZM206.31 80.76V80H210.022V80.76H206.31ZM211.107 80.76V80H214.819V80.76H211.107ZM215.903 80.76V80H219.615V80.76H215.903ZM220.74 80.72L223.508 73.92H224.372L221.596 80.72H220.74ZM230.334 80.72L233.102 73.92H233.966L231.19 80.72H230.334ZM239.928 80.72L242.696 73.92H243.56L240.784 80.72H239.928ZM244.725 80.72L247.493 73.92H248.357L245.581 80.72H244.725ZM249.482 80.76V80H253.194V80.76H249.482ZM254.318 80.72L257.086 73.92H257.95L255.174 80.72H254.318ZM261.891 80.72L259.115 73.92H259.979L262.747 80.72H261.891ZM263.872 80.76V80H267.584V80.76H263.872ZM268.669 80.76V80H272.381V80.76H268.669ZM273.506 80.72L276.274 73.92H277.138L274.362 80.72H273.506ZM283.1 80.72L285.868 73.92H286.732L283.956 80.72H283.1ZM292.693 80.72L295.461 73.92H296.325L293.549 80.72H292.693ZM0.0840001 90.72L2.852 83.92H3.716L0.94 90.72H0.0840001ZM4.84088 90.76V90H8.55288V90.76H4.84088ZM9.67775 90.72L12.4458 83.92H13.3098L10.5338 90.72H9.67775ZM19.2715 90.72L22.0395 83.92H22.9035L20.1275 90.72H19.2715ZM52.8496 90.72L55.6176 83.92H56.4816L53.7056 90.72H52.8496ZM62.4434 90.72L65.2114 83.92H66.0754L63.2994 90.72H62.4434ZM72.0371 90.72L74.8051 83.92H75.6691L72.8931 90.72H72.0371ZM76.794 90.76V90H80.506V90.76H76.794ZM81.5909 90.76V90H85.3029V90.76H81.5909ZM86.3878 90.76V90H90.0998V90.76H86.3878ZM91.1846 90.76V90H94.8966V90.76H91.1846ZM98.7975 90.72L96.0215 83.92H96.8855L99.6535 90.72H98.7975ZM100.818 90.72L103.586 83.92H104.45L101.674 90.72H100.818ZM110.412 90.72L113.18 83.92H114.044L111.268 90.72H110.412ZM115.209 90.72L117.977 83.92H118.841L116.065 90.72H115.209ZM124.803 90.72L127.571 83.92H128.435L125.659 90.72H124.803ZM134.397 90.72L137.165 83.92H138.029L135.253 90.72H134.397ZM151.563 90.72L148.787 83.92H149.651L152.419 90.72H151.563ZM161.157 90.72L158.381 83.92H159.245L162.013 90.72H161.157ZM170.751 90.72L167.975 83.92H168.839L171.607 90.72H170.751ZM177.568 90.72L180.336 83.92H181.2L178.424 90.72H177.568ZM187.162 90.72L189.93 83.92H190.794L188.018 90.72H187.162ZM196.756 90.72L199.524 83.92H200.388L197.612 90.72H196.756ZM201.513 90.76V90H205.225V90.76H201.513ZM206.31 90.76V90H210.022V90.76H206.31ZM211.107 90.76V90H214.819V90.76H211.107ZM215.903 90.76V90H219.615V90.76H215.903ZM223.516 90.72L220.74 83.92H221.604L224.372 90.72H223.516ZM225.537 90.72L228.305 83.92H229.169L226.393 90.72H225.537ZM235.131 90.72L237.899 83.92H238.763L235.987 90.72H235.131ZM247.501 90.72L244.725 83.92H245.589L248.357 90.72H247.501ZM257.094 90.72L254.318 83.92H255.182L257.95 90.72H257.094ZM259.115 90.72L261.883 83.92H262.747L259.971 90.72H259.115ZM263.872 90.76V90H267.584V90.76H263.872ZM268.669 90.76V90H272.381V90.76H268.669ZM273.466 90.76V90H277.178V90.76H273.466ZM278.303 90.72L281.071 83.92H281.935L279.159 90.72H278.303ZM287.897 90.72L290.665 83.92H291.529L288.753 90.72H287.897ZM2.86 100.72L0.0840001 93.92H0.948L3.716 100.72H2.86ZM4.84088 100.76V100H8.55288V100.76H4.84088ZM12.4538 100.72L9.67775 93.92H10.5418L13.3098 100.72H12.4538ZM14.4746 100.72L17.2426 93.92H18.1066L15.3306 100.72H14.4746ZM55.6256 100.72L52.8496 93.92H53.7136L56.4816 100.72H55.6256ZM57.6465 100.72L60.4145 93.92H61.2785L58.5025 100.72H57.6465ZM62.4034 100.76V100H66.1154V100.76H62.4034ZM67.2003 100.76V100H70.9123V100.76H67.2003ZM71.9971 100.76V100H75.7091V100.76H71.9971ZM76.794 100.76V100H80.506V100.76H76.794ZM81.5909 100.76V100H85.3029V100.76H81.5909ZM86.3878 100.76V100H90.0998V100.76H86.3878ZM91.1846 100.76V100H94.8966V100.76H91.1846ZM95.9815 100.76V100H99.6935V100.76H95.9815ZM100.778 100.76V100H104.49V100.76H100.778ZM105.615 100.72L108.383 93.92H109.247L106.471 100.72H105.615ZM117.985 100.72L115.209 93.92H116.073L118.841 100.72H117.985ZM120.006 100.72L122.774 93.92H123.638L120.862 100.72H120.006ZM124.763 100.76V100H128.475V100.76H124.763ZM129.6 100.72L132.368 93.92H133.232L130.456 100.72H129.6ZM156.36 100.72L153.584 93.92H154.448L157.216 100.72H156.36ZM158.341 100.76V100H162.053V100.76H158.341ZM165.954 100.72L163.178 93.92H164.042L166.81 100.72H165.954ZM167.975 100.72L170.743 93.92H171.607L168.831 100.72H167.975ZM180.344 100.72L177.568 93.92H178.432L181.2 100.72H180.344ZM182.365 100.72L185.133 93.92H185.997L183.221 100.72H182.365ZM187.122 100.76V100H190.834V100.76H187.122ZM191.919 100.76V100H195.631V100.76H191.919ZM196.716 100.76V100H200.428V100.76H196.716ZM201.513 100.76V100H205.225V100.76H201.513ZM206.31 100.76V100H210.022V100.76H206.31ZM211.107 100.76V100H214.819V100.76H211.107ZM215.903 100.76V100H219.615V100.76H215.903ZM220.7 100.76V100H224.412V100.76H220.7ZM225.497 100.76V100H229.209V100.76H225.497ZM230.334 100.72L233.102 93.92H233.966L231.19 100.72H230.334ZM252.298 100.72L249.522 93.92H250.386L253.154 100.72H252.298ZM254.278 100.76V100H257.99V100.76H254.278ZM259.075 100.76V100H262.787V100.76H259.075ZM263.872 100.76V100H267.584V100.76H263.872ZM268.669 100.76V100H272.381V100.76H268.669ZM273.466 100.76V100H277.178V100.76H273.466ZM281.079 100.72L278.303 93.92H279.167L281.935 100.72H281.079ZM283.1 100.72L285.868 93.92H286.732L283.956 100.72H283.1Z" fill="white"/>
</svg>
