<svg width="353" height="353" viewBox="0 0 353 353" fill="none" xmlns="http://www.w3.org/2000/svg">
<path d="M353 176.5C353 273.978 273.978 353 176.5 353C79.0217 353 0 273.978 0 176.5C0 79.0217 79.0217 0 176.5 0C273.978 0 353 79.0217 353 176.5Z" fill="white"/>
<path d="M300.051 176.146C300.051 244.576 244.578 300.049 176.148 300.049C107.718 300.049 52.2452 244.576 52.2452 176.146C52.2452 107.717 107.718 52.2435 176.148 52.2435C244.578 52.2435 300.051 107.717 300.051 176.146Z" fill="#09090B"/>
<path d="M38.1254 165.91H237.217V187.09H38.1254V165.91Z" fill="white"/>
</svg>
