<svg width="391" height="344" viewBox="0 0 391 344" fill="none" xmlns="http://www.w3.org/2000/svg">
<path d="M389.411 21C305.992 21 238.367 88.4926 238.367 171.749C238.367 255.005 305.992 322.498 389.411 322.498M0 322.678C83.4192 322.678 151.044 255.186 151.044 171.929C151.044 88.673 83.4192 21.1805 0 21.1805M0.412109 170H390.412" stroke="white" stroke-width="42"/>
<path d="M306 170.5C306 232.08 256.08 282 194.5 282C132.92 282 83 232.08 83 170.5C83 108.92 132.92 59 194.5 59C256.08 59 306 108.92 306 170.5Z" fill="white"/>
<path d="M272.55 170.277C272.55 213.506 237.506 248.55 194.277 248.55C151.048 248.55 116.004 213.506 116.004 170.277C116.004 127.048 151.048 92.0038 194.277 92.0038C237.506 92.0038 272.55 127.048 272.55 170.277Z" fill="#09090B"/>
<path d="M100.345 161.827H226.712V179.172H100.345V161.827Z" fill="white"/>
</svg>
