<svg width="41" height="35" viewBox="0 0 41 35" fill="none" xmlns="http://www.w3.org/2000/svg">
<path d="M28.1766 35H40.25V34.5139H39.5573C38.8975 34.5139 38.2378 34.3843 37.578 34.1251C36.3575 33.6066 35.3514 32.7965 34.5597 31.6947L24.9603 16.8695L23.7241 16.5278L22.7344 16.5293L21.25 17.5014L26.7416 25.6431L30.5517 31.5489C30.7166 31.8729 30.7991 32.197 30.7991 32.521C30.7991 32.8451 30.6836 33.1853 30.4527 33.5418C30.0569 34.1899 29.4961 34.5139 28.7704 34.5139H28.1766V35Z" fill="white"/>
<path d="M12.3234 35H0.25V34.5139H0.942737C1.60249 34.5139 2.26223 34.3843 2.92198 34.1251C4.14252 33.6066 5.14864 32.7965 5.94033 31.6947L15.5397 16.8695L16.7759 16.5278L17.7656 16.5293L19.25 17.5014L13.7584 25.6431L9.94831 31.5489C9.78337 31.8729 9.7009 32.197 9.7009 32.521C9.7009 32.8451 9.81636 33.1853 10.0473 33.5418C10.4431 34.1899 11.0039 34.5139 11.7296 34.5139H12.3234V35Z" fill="white"/>
<path d="M12.3234 0H0.25V0.486071H0.942737C1.60249 0.486071 2.26223 0.615692 2.92198 0.874929C4.14252 1.39341 5.14864 2.20352 5.94033 3.30529L15.5397 18.1305L16.7759 18.4722L17.7656 18.4707L19.25 17.4986L13.7584 9.35687L9.94831 3.45111C9.78337 3.12706 9.7009 2.80301 9.7009 2.47897C9.7009 2.15492 9.81636 1.81466 10.0473 1.45821C10.4431 0.810118 11.0039 0.486071 11.7296 0.486071H12.3234V0Z" fill="white"/>
<path d="M28.1766 0H40.25V0.486071H39.5573C38.8975 0.486071 38.2378 0.615692 37.578 0.874929C36.3575 1.39341 35.3514 2.20352 34.5597 3.30528L24.9603 18.1305L23.7241 18.4722L22.7344 18.4707L21.25 17.4986L26.7416 9.35687L30.5517 3.4511C30.7166 3.12706 30.7991 2.80301 30.7991 2.47897C30.7991 2.15492 30.6836 1.81466 30.4527 1.45821C30.0569 0.810118 29.4961 0.486071 28.7704 0.486071H28.1766V0Z" fill="white"/>
<path d="M39.399 22.0135C39.399 21.1709 39.099 20.458 38.499 19.8746C37.8657 19.2589 37.1157 18.9348 36.249 18.9024L4.4 18.9024C3.53334 18.9348 2 19.2589 1.4 19.8746C0.8 20.458 0.5 21.1709 0.5 22.0135V22.6455H4.78642e-07L0 11.9996H0.5L0.5 12.6316C0.5 13.4742 0.8 14.2033 1.4 14.8191C2 15.4024 3.53334 15.7103 4.4 15.7427L36.249 15.7427C37.1157 15.7427 37.8657 15.4348 38.499 14.8191C39.099 14.2033 39.399 13.4742 39.399 12.6316V11.9996H39.899V22.6455H39.399V22.0135Z" fill="white"/>
</svg>
