<svg width="24" height="24" viewBox="0 0 12 13" fill="none" xmlns="http://www.w3.org/2000/svg">
    <rect x="-0.101695" y="0.101695" width="11.7966" height="11.7966" rx="5.8983"
        transform="matrix(-1 0 0 1 11.7966 0.5)" fill="#A1A1AB" />
    <rect x="-0.101695" y="0.101695" width="11.7966" height="11.7966" rx="5.8983"
        transform="matrix(-1 0 0 1 11.7966 0.5)" stroke="#0E0E11" stroke-width="0.20339" />
    <path
        d="M2.80125 8.90088C4.12914 8.90088 5.2056 7.82651 5.2056 6.50122C5.2056 5.17592 4.12914 4.10156 2.80125 4.10156M9 4.09869C7.67211 4.09869 6.59565 5.17305 6.59565 6.49835C6.59565 7.82364 7.67211 8.89801 9 8.89801M8.99344 6.52906H2.78532"
        stroke="#0E0E11" stroke-width="0.789949" />
    <rect x="4.15" y="4.65" width="3.7" height="3.7" rx="1.85" fill="#A1A1AA" />
    <rect x="4.15" y="4.65" width="3.7" height="3.7" rx="1.85" stroke="#0E0E11" stroke-width="0.3" />
    <path d="M4 6.50039L6.8 6.50195" stroke="#0E0E11" stroke-width="0.4" />
</svg>