<svg width="659.6" height="144.802" viewBox="0 0 659.6 144.802" xmlns="http://www.w3.org/2000/svg"><g id="svgGroup" stroke-linecap="round" fill-rule="evenodd" font-size="9pt" stroke="#000" stroke-width="0.25mm" fill="#ffffff" style="stroke:#000;stroke-width:0.25mm;fill:#ffffff"><path d="M 539.2 11.4 L 532.2 27.2 Q 523.8 22.6 515.1 19.6 A 54.721 54.721 0 0 0 502.902 16.959 A 68.45 68.45 0 0 0 495.8 16.6 A 40.259 40.259 0 0 0 480.826 19.342 A 37.837 37.837 0 0 0 473.4 23.3 A 40.591 40.591 0 0 0 462.752 34.136 A 54.914 54.914 0 0 0 457.9 43 A 63.228 63.228 0 0 0 453.809 56.462 Q 452.2 64.813 452.2 74.8 Q 452.2 91.6 457.4 103.5 A 48.36 48.36 0 0 0 463.265 113.594 A 38.205 38.205 0 0 0 471.8 121.8 A 35.861 35.861 0 0 0 491.419 128.172 A 43.986 43.986 0 0 0 493 128.2 A 45.524 45.524 0 0 0 504.194 126.874 A 37.669 37.669 0 0 0 512.9 123.5 Q 521.6 118.8 526.6 113.8 L 526.6 83.2 L 497.6 83.2 L 497.6 68.2 L 544.6 68.2 L 544.6 142.4 L 527.8 142.4 L 527.8 128.4 A 71.766 71.766 0 0 1 519.044 134.984 A 94.708 94.708 0 0 1 510.8 139.7 A 47.187 47.187 0 0 1 491.988 144.7 A 56.262 56.262 0 0 1 488.6 144.8 Q 472.4 144.8 459.8 136.4 Q 447.2 128 440 112.5 Q 432.8 97 432.8 76 A 112.602 112.602 0 0 1 434.47 56.165 A 85.144 85.144 0 0 1 440.4 36.5 A 65.46 65.46 0 0 1 451.968 18.605 A 58.91 58.91 0 0 1 462.3 9.7 A 55.667 55.667 0 0 1 485.038 0.901 A 74.127 74.127 0 0 1 496.8 0 A 90.518 90.518 0 0 1 508.737 0.751 A 67.218 67.218 0 0 1 520 3.2 Q 530.2 6.4 539.2 11.4 Z M 659.6 142.4 L 575.6 142.4 L 575.6 2.4 L 659.6 2.4 L 659.6 18.8 L 594.6 18.8 L 594.6 61.4 L 650.6 61.4 L 650.6 77.4 L 594.6 77.4 L 594.6 126 L 659.6 126 L 659.6 142.4 Z M 225.4 136.4 L 207.6 144.8 L 190.2 106.8 Q 183.6 92.6 173.6 86.6 A 39.304 39.304 0 0 0 162.599 82.196 Q 157.682 80.999 151.929 80.7 A 75.695 75.695 0 0 0 148 80.6 L 145 80.6 L 145 142.4 L 126 142.4 L 126 2.8 A 495.801 495.801 0 0 1 141.394 1.582 A 431.558 431.558 0 0 1 146.3 1.3 A 375.882 375.882 0 0 1 158.933 0.871 A 452.536 452.536 0 0 1 167 0.8 Q 183.038 0.8 194.091 4.882 A 40.191 40.191 0 0 1 205.5 11.2 A 34.829 34.829 0 0 1 214.759 22.269 Q 218.386 29.261 218.4 37.932 A 41.617 41.617 0 0 1 218.4 38 A 39.76 39.76 0 0 1 217.099 48.44 A 29.344 29.344 0 0 1 209.7 61.5 Q 201 70.4 184.6 74.8 A 47.313 47.313 0 0 1 191.458 78.526 A 40.854 40.854 0 0 1 194.2 80.5 Q 198.4 83.8 202.3 89.3 Q 205.248 93.458 208.253 99.5 A 130.366 130.366 0 0 1 210.2 103.6 L 225.4 136.4 Z M 0 142 L 0 2.8 Q 7 2 17.4 1.4 Q 26.338 0.885 37.491 0.812 A 570.686 570.686 0 0 1 41.2 0.8 Q 58 0.8 69.718 4.978 A 45.207 45.207 0 0 1 80.6 10.5 A 33.421 33.421 0 0 1 89.725 19.815 Q 94.108 26.681 94.382 35.602 A 39.053 39.053 0 0 1 94.4 36.8 A 34.104 34.104 0 0 1 93.146 46.24 A 27.595 27.595 0 0 1 88.5 55.5 A 36.573 36.573 0 0 1 80.735 62.92 Q 77.161 65.49 72.694 67.605 A 63.327 63.327 0 0 1 71.4 68.2 A 60.434 60.434 0 0 1 80.672 72.321 Q 85.778 75.161 89.494 78.78 A 33.74 33.74 0 0 1 92 81.5 Q 99 90 99 102.4 A 38.66 38.66 0 0 1 96.025 117.795 Q 92.32 126.433 84 132.7 A 49.361 49.361 0 0 1 69.246 140.121 Q 62.447 142.303 54.169 143.258 A 120.388 120.388 0 0 1 40.4 144 Q 28.2 144 17.3 143.4 Q 6.4 142.8 0 142 Z M 304.4 142 L 304.4 2.8 Q 313.8 1.8 322.8 1.3 Q 330.534 0.871 340.189 0.81 A 513.172 513.172 0 0 1 343.4 0.8 Q 360.126 0.8 372.62 5.636 A 58.396 58.396 0 0 1 374.5 6.4 Q 387.6 12 396.1 21.8 Q 404.6 31.6 408.7 44.5 A 88.512 88.512 0 0 1 412.644 66.492 A 103.012 103.012 0 0 1 412.8 72.2 Q 412.8 86.8 408.6 99.8 Q 404.4 112.8 395.7 122.7 A 57.937 57.937 0 0 1 379.189 135.599 A 70.514 70.514 0 0 1 373.5 138.3 Q 360.949 143.6 343.818 143.972 A 120.384 120.384 0 0 1 341.2 144 Q 329.8 144 321.3 143.4 Q 312.8 142.8 304.4 142 Z M 268.4 142.4 L 249.4 142.4 L 249.4 2.4 L 268.4 2.4 L 268.4 142.4 Z M 323.4 18.2 L 323.4 126.4 Q 327.6 127 332.2 127.2 Q 336.8 127.4 341.8 127.4 Q 359.8 127.4 371.2 120.4 Q 382.6 113.4 388 100.9 A 64.583 64.583 0 0 0 392.509 84.752 A 85.005 85.005 0 0 0 393.4 72.2 Q 393.4 57.8 388 45.2 Q 382.6 32.6 371.4 24.9 A 41.79 41.79 0 0 0 357.296 18.781 Q 351.614 17.423 344.992 17.232 A 76.016 76.016 0 0 0 342.8 17.2 Q 337 17.2 332.2 17.5 Q 327.4 17.8 323.4 18.2 Z M 41.8 77.6 L 19 77.6 L 19 127 A 188.365 188.365 0 0 0 32.875 128.032 A 230.322 230.322 0 0 0 41.8 128.2 Q 53.481 128.2 61.803 125.444 A 34.541 34.541 0 0 0 69.6 121.8 A 21.755 21.755 0 0 0 76.436 115.09 Q 79.106 110.849 79.523 105.3 A 28.005 28.005 0 0 0 79.6 103.2 A 23.456 23.456 0 0 0 77.856 94.001 Q 75.652 88.775 70.665 85.025 A 28.054 28.054 0 0 0 69.8 84.4 Q 62.546 79.367 50.689 78.059 A 81.242 81.242 0 0 0 41.8 77.6 Z M 19 17.2 L 19 62.8 L 41 62.8 A 61.32 61.32 0 0 0 51.068 62.025 Q 56.364 61.142 60.67 59.254 A 30.522 30.522 0 0 0 66.1 56.2 A 24.379 24.379 0 0 0 71.583 50.966 A 19.116 19.116 0 0 0 75.4 39.2 A 21.595 21.595 0 0 0 74.052 31.402 Q 71.878 25.742 66.2 22.1 A 33.285 33.285 0 0 0 57.227 18.172 Q 53.085 17.002 48.141 16.526 A 74.652 74.652 0 0 0 41 16.2 Q 34.4 16.2 29 16.5 Q 23.6 16.8 19 17.2 Z M 145 17.6 L 145 64.6 L 167 64.6 Q 181.4 64.6 190.4 58.2 A 20.577 20.577 0 0 0 199.212 43.152 A 29.024 29.024 0 0 0 199.4 39.8 Q 199.4 29.8 191 23.3 A 27.846 27.846 0 0 0 182.272 18.857 Q 178.414 17.636 173.754 17.14 A 63.889 63.889 0 0 0 167 16.8 Q 160.2 16.8 154.8 17 Q 149.4 17.2 145 17.6 Z" vector-effect="non-scaling-stroke"/></g></svg>
