<svg width="1705" height="144.803" viewBox="0 0 1705 144.803" xmlns="http://www.w3.org/2000/svg"><g id="svgGroup" stroke-linecap="round" fill-rule="evenodd" font-size="9pt" stroke="#000" stroke-width="0.25mm" fill="#ff53c8" style="stroke:#000;stroke-width:0.25mm;fill:#ff53c8"><path d="M 1421.4 142.401 L 1379.6 25.601 L 1359.2 142.401 L 1341.2 142.401 L 1365.8 2.401 L 1391 2.401 L 1432 120.001 L 1452.8 2.401 L 1470.8 2.401 L 1446.2 142.401 L 1421.4 142.401 Z M 977.2 142.401 L 988.4 78.601 L 921.6 78.601 L 910.4 142.401 L 891.4 142.401 L 916 2.401 L 935 2.401 L 924.4 62.201 L 991.2 62.201 L 1001.8 2.401 L 1020.8 2.401 L 996.2 142.401 L 977.2 142.401 Z M 482.8 128.401 L 476.2 143.401 Q 468.627 143.401 463.518 140.889 A 17.532 17.532 0 0 1 459.4 138.101 A 16.358 16.358 0 0 1 455.005 131.197 Q 453.6 127.114 453.6 121.601 L 453.6 117.201 A 74.377 74.377 0 0 1 443.381 130.066 A 62.259 62.259 0 0 1 434.7 137.301 A 42.529 42.529 0 0 1 414.852 144.492 A 54.103 54.103 0 0 1 409 144.801 A 41.071 41.071 0 0 1 394.796 142.378 A 38.541 38.541 0 0 1 390.3 140.401 A 33.292 33.292 0 0 1 376.86 127.572 A 39.644 39.644 0 0 1 376.7 127.301 A 36.021 36.021 0 0 1 372.508 116.005 A 50.332 50.332 0 0 1 371.6 106.201 A 92.851 92.851 0 0 1 371.727 101.248 A 73.008 73.008 0 0 1 372 97.701 Q 372.397 93.832 373.187 89.077 A 193.856 193.856 0 0 1 373.2 89.001 L 388 2.401 L 407 2.401 L 391.6 93.201 Q 391.188 95.676 390.964 97.631 A 49.568 49.568 0 0 0 390.8 99.301 Q 390.6 101.801 390.6 104.801 A 29.514 29.514 0 0 0 391.427 111.983 A 20.656 20.656 0 0 0 397 121.901 A 21.312 21.312 0 0 0 407.639 127.515 A 31.537 31.537 0 0 0 414.4 128.201 Q 423.6 128.201 432.7 122.601 A 45.617 45.617 0 0 0 442.731 114.118 A 61.008 61.008 0 0 0 448.7 106.201 A 61.276 61.276 0 0 0 455.102 92.596 A 83.388 83.388 0 0 0 458.2 80.001 L 472 2.401 L 491 2.401 L 471.4 113.201 A 15.946 15.946 0 0 0 471.234 114.205 Q 471.153 114.811 471.1 115.501 A 34.726 34.726 0 0 0 471.002 117.831 A 38.644 38.644 0 0 0 471 118.201 A 14.827 14.827 0 0 0 471.259 121.073 Q 471.896 124.295 474.1 126.001 A 10.402 10.402 0 0 0 477.423 127.684 Q 478.869 128.132 480.608 128.3 A 22.78 22.78 0 0 0 482.8 128.401 Z M 1481.6 142.401 L 1506.2 2.401 L 1589.2 2.401 L 1586.4 18.801 L 1522.2 18.801 L 1514.8 61.401 L 1569.8 61.401 L 1567 77.401 L 1512 77.401 L 1503.4 126.001 L 1567.4 126.001 L 1564.6 142.401 L 1481.6 142.401 Z M 1076 142.401 L 1078.6 127.601 L 1166.4 18.801 L 1098.2 18.801 L 1101 2.401 L 1192.8 2.401 L 1190.4 16.801 L 1102 125.601 L 1178 125.601 L 1175 142.401 L 1076 142.401 Z M 604.8 11.401 L 595 27.001 Q 587.8 22.401 579.9 19.401 Q 572.269 16.504 562.119 16.405 A 73.942 73.942 0 0 0 561.4 16.401 Q 549.6 16.401 542.4 21.501 Q 535.2 26.601 535.2 34.801 Q 535.2 42.201 540.3 47.901 A 31.839 31.839 0 0 0 543.857 51.242 Q 547.904 54.555 554.453 58.357 A 161.188 161.188 0 0 0 559.2 61.001 A 141.481 141.481 0 0 1 567.554 65.778 Q 571.425 68.183 574.555 70.551 A 59.629 59.629 0 0 1 579.5 74.701 A 45.255 45.255 0 0 1 584.87 80.698 Q 587.736 84.577 589.252 88.671 A 28.41 28.41 0 0 1 589.3 88.801 A 44.501 44.501 0 0 1 591.709 99.467 A 55.141 55.141 0 0 1 592 105.201 A 39.633 39.633 0 0 1 590.45 116.494 A 33.119 33.119 0 0 1 585.7 126.301 A 38.683 38.683 0 0 1 572.866 137.705 A 48.388 48.388 0 0 1 568.2 140.001 A 57.727 57.727 0 0 1 554.461 143.883 A 78.184 78.184 0 0 1 542.2 144.801 Q 527.8 144.801 516.2 140.901 A 68.941 68.941 0 0 1 501.009 133.718 A 61.549 61.549 0 0 1 495.8 130.001 L 508.2 114.601 Q 515 120.801 524.1 124.501 Q 533.2 128.201 544.2 128.201 Q 554.001 128.201 560.789 124.962 A 24.946 24.946 0 0 0 564.9 122.501 A 18.016 18.016 0 0 0 572.472 109.46 A 23.088 23.088 0 0 0 572.6 107.001 A 23.606 23.606 0 0 0 571.633 100.159 A 21.104 21.104 0 0 0 570.3 96.801 A 20.797 20.797 0 0 0 568.055 93.309 Q 566.758 91.652 565.005 89.959 A 48.307 48.307 0 0 0 562 87.301 A 69.645 69.645 0 0 0 557.742 84.112 Q 552.848 80.706 545.812 76.765 A 230.79 230.79 0 0 0 544.8 76.201 A 120.627 120.627 0 0 1 536.038 70.789 Q 527.641 65.053 523.165 59.403 A 33.465 33.465 0 0 1 522.7 58.801 A 31.106 31.106 0 0 1 517.232 46.717 Q 516.232 42.283 516.201 37.134 A 54.887 54.887 0 0 1 516.2 36.801 A 35.671 35.671 0 0 1 517.721 26.2 A 30.321 30.321 0 0 1 522.1 17.401 Q 528 9.201 538.6 4.601 A 54.57 54.57 0 0 1 552.316 0.761 A 72.25 72.25 0 0 1 563 0.001 A 88.34 88.34 0 0 1 575.71 0.876 A 68.62 68.62 0 0 1 585.8 3.101 Q 596 6.201 604.8 11.401 Z M 772.6 11.401 L 762.8 27.001 Q 755.6 22.401 747.7 19.401 Q 740.069 16.504 729.919 16.405 A 73.942 73.942 0 0 0 729.2 16.401 Q 717.4 16.401 710.2 21.501 Q 703 26.601 703 34.801 Q 703 42.201 708.1 47.901 A 31.839 31.839 0 0 0 711.657 51.242 Q 715.704 54.555 722.253 58.357 A 161.188 161.188 0 0 0 727 61.001 A 141.481 141.481 0 0 1 735.354 65.778 Q 739.225 68.183 742.355 70.551 A 59.629 59.629 0 0 1 747.3 74.701 A 45.255 45.255 0 0 1 752.67 80.698 Q 755.536 84.577 757.052 88.671 A 28.41 28.41 0 0 1 757.1 88.801 A 44.501 44.501 0 0 1 759.509 99.467 A 55.141 55.141 0 0 1 759.8 105.201 A 39.633 39.633 0 0 1 758.25 116.494 A 33.119 33.119 0 0 1 753.5 126.301 A 38.683 38.683 0 0 1 740.666 137.705 A 48.388 48.388 0 0 1 736 140.001 A 57.727 57.727 0 0 1 722.261 143.883 A 78.184 78.184 0 0 1 710 144.801 Q 695.6 144.801 684 140.901 A 68.941 68.941 0 0 1 668.809 133.718 A 61.549 61.549 0 0 1 663.6 130.001 L 676 114.601 Q 682.8 120.801 691.9 124.501 Q 701 128.201 712 128.201 Q 721.801 128.201 728.589 124.962 A 24.946 24.946 0 0 0 732.7 122.501 A 18.016 18.016 0 0 0 740.272 109.46 A 23.088 23.088 0 0 0 740.4 107.001 A 23.606 23.606 0 0 0 739.433 100.159 A 21.104 21.104 0 0 0 738.1 96.801 A 20.797 20.797 0 0 0 735.855 93.309 Q 734.558 91.652 732.805 89.959 A 48.307 48.307 0 0 0 729.8 87.301 A 69.645 69.645 0 0 0 725.542 84.112 Q 720.648 80.706 713.612 76.765 A 230.79 230.79 0 0 0 712.6 76.201 A 120.627 120.627 0 0 1 703.838 70.789 Q 695.441 65.053 690.965 59.403 A 33.465 33.465 0 0 1 690.5 58.801 A 31.106 31.106 0 0 1 685.032 46.717 Q 684.032 42.283 684.001 37.134 A 54.887 54.887 0 0 1 684 36.801 A 35.671 35.671 0 0 1 685.521 26.2 A 30.321 30.321 0 0 1 689.9 17.401 Q 695.8 9.201 706.4 4.601 A 54.57 54.57 0 0 1 720.116 0.761 A 72.25 72.25 0 0 1 730.8 0.001 A 88.34 88.34 0 0 1 743.51 0.876 A 68.62 68.62 0 0 1 753.6 3.101 Q 763.8 6.201 772.6 11.401 Z M 245.4 142.401 L 269.8 4.401 Q 278.8 2.801 286.7 1.801 Q 294.6 0.801 305.2 0.801 Q 320.4 0.801 330.8 5.601 A 43.199 43.199 0 0 1 339.325 10.727 A 33.236 33.236 0 0 1 346.6 18.501 Q 352 26.601 352 36.401 A 45.278 45.278 0 0 1 350.751 47.376 A 29.389 29.389 0 0 1 340.4 63.801 Q 329.91 72.121 313.369 75.207 A 94.92 94.92 0 0 1 309.8 75.801 Q 318 79.401 322.6 84.701 Q 327.2 90.001 329.8 95.801 A 99.294 99.294 0 0 1 333.194 104.389 A 87.836 87.836 0 0 1 334.1 107.201 A 104.454 104.454 0 0 0 336.107 113.185 A 82.832 82.832 0 0 0 337.8 117.401 A 18.574 18.574 0 0 0 340.727 122.14 A 16.357 16.357 0 0 0 343.5 124.701 Q 346.43 126.84 351.18 127.285 A 28.126 28.126 0 0 0 353.8 127.401 L 346.8 143.801 Q 340.256 143.801 335.592 141.921 A 18.779 18.779 0 0 1 332.6 140.401 Q 327.2 137.001 323.9 131.501 A 70.133 70.133 0 0 1 319.741 123.372 A 82.828 82.828 0 0 1 318.1 119.301 Q 315.6 112.601 312.8 105.901 Q 310 99.201 305.6 93.701 A 30.016 30.016 0 0 0 297.979 87.005 A 37.823 37.823 0 0 0 293.9 84.801 Q 286.6 81.401 275.2 81.401 L 264.4 142.401 L 245.4 142.401 Z M 868.6 119.401 L 871.8 136.601 Q 864.4 140.001 855.4 142.401 A 68.796 68.796 0 0 1 845.16 144.274 A 93.436 93.436 0 0 1 835 144.801 A 65.05 65.05 0 0 1 820.074 143.159 A 51.545 51.545 0 0 1 806.3 137.801 A 47.52 47.52 0 0 1 787.63 118.326 A 56.918 56.918 0 0 1 787.2 117.501 A 59.241 59.241 0 0 1 781.944 102.016 Q 780.4 94.256 780.4 85.201 A 107.674 107.674 0 0 1 782.898 61.665 A 94.386 94.386 0 0 1 785.7 51.701 A 85.701 85.701 0 0 1 796.114 30.743 A 77.938 77.938 0 0 1 800.8 24.601 Q 810.6 13.001 824.1 6.501 A 66.431 66.431 0 0 1 849.792 0.103 A 78.34 78.34 0 0 1 853.8 0.001 Q 865.6 0.001 874.6 3.201 Q 881.491 5.651 886.623 8.219 A 65.282 65.282 0 0 1 889.6 9.801 L 881 25.401 Q 875 21.601 868.3 19.101 A 37.094 37.094 0 0 0 861.425 17.307 Q 858.119 16.756 854.348 16.635 A 67.232 67.232 0 0 0 852.2 16.601 Q 837.6 16.601 825.8 25.301 A 57.244 57.244 0 0 0 811.057 41.531 A 72.119 72.119 0 0 0 807 49.101 A 74.447 74.447 0 0 0 800.984 69.734 A 96.984 96.984 0 0 0 800 83.801 Q 800 98.788 805.103 108.865 A 34.403 34.403 0 0 0 810.6 116.801 A 34.984 34.984 0 0 0 836.075 128.176 A 46.043 46.043 0 0 0 837.6 128.201 Q 847 128.201 854.3 125.601 Q 861.6 123.001 868.6 119.401 Z M 0 19.201 L 3 2.401 L 108 2.401 L 105 19.201 L 62 19.201 L 40.4 142.401 L 21.4 142.401 L 43 19.201 L 0 19.201 Z M 1597 19.201 L 1600 2.401 L 1705 2.401 L 1702 19.201 L 1659 19.201 L 1637.4 142.401 L 1618.4 142.401 L 1640 19.201 L 1597 19.201 Z M 157.2 144.801 Q 138.4 144.801 125.4 136.601 Q 112.4 128.401 105.6 114.501 Q 98.8 100.601 98.8 83.401 Q 98.8 67.401 103.8 52.501 Q 108.8 37.601 118.5 25.701 Q 128.2 13.801 142.2 6.901 A 66.685 66.685 0 0 1 163.21 0.692 A 84.92 84.92 0 0 1 174.2 0.001 Q 193 0.001 206 8.201 Q 219 16.401 225.8 30.301 Q 232.6 44.201 232.6 61.401 Q 232.6 77.401 227.6 92.301 Q 222.6 107.201 212.9 119.101 Q 203.2 131.001 189.2 137.901 A 66.685 66.685 0 0 1 168.19 144.111 A 84.92 84.92 0 0 1 157.2 144.801 Z M 1253 144.801 Q 1234.2 144.801 1221.2 136.601 Q 1208.2 128.401 1201.4 114.501 Q 1194.6 100.601 1194.6 83.401 Q 1194.6 67.401 1199.6 52.501 Q 1204.6 37.601 1214.3 25.701 Q 1224 13.801 1238 6.901 A 66.685 66.685 0 0 1 1259.01 0.692 A 84.92 84.92 0 0 1 1270 0.001 Q 1288.8 0.001 1301.8 8.201 Q 1314.8 16.401 1321.6 30.301 Q 1328.4 44.201 1328.4 61.401 Q 1328.4 77.401 1323.4 92.301 Q 1318.4 107.201 1308.7 119.101 Q 1299 131.001 1285 137.901 A 66.685 66.685 0 0 1 1263.99 144.111 A 84.92 84.92 0 0 1 1253 144.801 Z M 172.6 16.401 A 51.917 51.917 0 0 0 159.054 18.11 A 44.068 44.068 0 0 0 149.7 21.801 Q 139.6 27.201 132.6 36.601 A 70.397 70.397 0 0 0 122.016 57.433 A 78.906 78.906 0 0 0 121.9 57.801 Q 118.2 69.601 118.2 82.201 A 61.772 61.772 0 0 0 119.822 96.591 A 52.624 52.624 0 0 0 122.8 105.501 Q 127.4 116.001 136.5 122.201 A 35.003 35.003 0 0 0 149.842 127.601 A 47.954 47.954 0 0 0 158.8 128.401 A 51.917 51.917 0 0 0 172.346 126.693 A 44.068 44.068 0 0 0 181.7 123.001 Q 191.8 117.601 198.8 108.201 A 70.397 70.397 0 0 0 209.384 87.37 A 78.906 78.906 0 0 0 209.5 87.001 Q 213.2 75.201 213.2 62.601 A 61.772 61.772 0 0 0 211.578 48.212 A 52.624 52.624 0 0 0 208.6 39.301 Q 204 28.801 195 22.601 A 34.177 34.177 0 0 0 182.397 17.347 A 48.228 48.228 0 0 0 172.6 16.401 Z M 1268.4 16.401 A 51.917 51.917 0 0 0 1254.854 18.11 A 44.068 44.068 0 0 0 1245.5 21.801 Q 1235.4 27.201 1228.4 36.601 A 70.397 70.397 0 0 0 1217.816 57.433 A 78.906 78.906 0 0 0 1217.7 57.801 Q 1214 69.601 1214 82.201 A 61.772 61.772 0 0 0 1215.622 96.591 A 52.624 52.624 0 0 0 1218.6 105.501 Q 1223.2 116.001 1232.3 122.201 A 35.003 35.003 0 0 0 1245.642 127.601 A 47.954 47.954 0 0 0 1254.6 128.401 A 51.917 51.917 0 0 0 1268.146 126.693 A 44.068 44.068 0 0 0 1277.5 123.001 Q 1287.6 117.601 1294.6 108.201 A 70.397 70.397 0 0 0 1305.184 87.37 A 78.906 78.906 0 0 0 1305.3 87.001 Q 1309 75.201 1309 62.601 A 61.772 61.772 0 0 0 1307.378 48.212 A 52.624 52.624 0 0 0 1304.4 39.301 Q 1299.8 28.801 1290.8 22.601 A 34.177 34.177 0 0 0 1278.197 17.347 A 48.228 48.228 0 0 0 1268.4 16.401 Z M 1050.6 142.401 L 1031.6 142.401 L 1056.2 2.401 L 1075.2 2.401 L 1050.6 142.401 Z M 286.4 18.201 L 278 65.401 L 294.6 65.401 A 69.986 69.986 0 0 0 305.861 64.551 Q 315.809 62.926 322.7 58.201 A 25.605 25.605 0 0 0 329.251 51.885 Q 333.131 46.382 333.199 39.064 A 28.161 28.161 0 0 0 333.2 38.801 A 20.178 20.178 0 0 0 331.153 29.652 Q 329.23 25.804 325.5 22.801 A 25.828 25.828 0 0 0 316.63 18.256 Q 312.891 17.131 308.4 16.771 A 55.062 55.062 0 0 0 304 16.601 Q 298.8 16.601 294.5 17.001 A 75.154 75.154 0 0 0 288.824 17.74 A 64.084 64.084 0 0 0 286.4 18.201 Z" vector-effect="non-scaling-stroke"/></g></svg>
